<svg width="168" height="168" viewBox="0 0 168 168" fill="none" xmlns="http://www.w3.org/2000/svg">
<rect x="56.5" y="40.5" width="55" height="95" fill="white" stroke="black"/>
<rect x="24.5" y="48.5" width="119" height="87" fill="white" stroke="black"/>
<rect x="24.5" y="72.5" width="119" height="71" fill="white" stroke="black"/>
<rect x="16.5" y="72.5" width="135" height="71" fill="white" stroke="black"/>
<rect x="8.5" y="96.5" width="151" height="71" fill="white" stroke="black"/>
<path d="M43.2842 119.273V144H45.4092V124.042H45.6024L53.9454 144H55.998L64.341 124.042H64.5342V144H66.6592V119.273H64.0512L55.0803 140.812H54.863L45.8921 119.273H43.2842Z" fill="black"/>
<path d="M81.7334 144H90.5352C95.8477 144 98.2987 141.259 98.2987 137.516C98.2987 133.761 95.8115 131.504 93.4088 131.334V131.141C95.6183 130.55 97.3328 128.835 97.3328 125.744C97.3328 122.026 94.906 119.273 90.0764 119.273H81.7334V144ZM83.9912 141.972V132.445H90.6318C93.9521 132.445 96.1375 134.691 96.1375 137.516C96.1375 140.076 94.3506 141.972 90.5352 141.972H83.9912ZM83.9912 130.441V121.301H90.0764C93.4571 121.301 95.1716 123.124 95.1716 125.744C95.1716 128.461 93.2036 130.441 90.2817 130.441H83.9912Z" fill="black"/>
<path d="M112.283 144L114.927 136.55H125.311L127.955 144H130.322L121.327 119.273H118.912L109.917 144H112.283ZM115.652 134.522L120.035 122.207H120.204L124.587 134.522H115.652Z" fill="black"/>
<path d="M127.5 8L100 30.0769V50.8636L127.5 73L153 40L127.5 8Z" fill="#F1B28F" stroke="black"/>
<path d="M41.5 8L69 30.0769V50.8636L41.5 73L16 40L41.5 8Z" fill="#F1B28F" stroke="black"/>
<rect x="68.5" y="29.5" width="32" height="21" rx="1.5" fill="#F1B28F" stroke="black"/>
</svg>
