<svg width="168" height="168" viewBox="0 0 168 168" fill="none" xmlns="http://www.w3.org/2000/svg">
<path d="M110.439 118.461C106.369 122.53 97.7883 127.808 87.0829 133.398C76.3983 138.976 63.6584 144.835 51.3241 150.073C38.9898 155.312 27.0695 159.926 18.0256 163.019C13.5018 164.565 9.70785 165.728 6.94539 166.397C5.56181 166.732 4.45376 166.94 3.64928 167.013C3.24571 167.05 2.93815 167.051 2.71939 167.025C2.53996 167.004 2.46881 166.969 2.45159 166.961C2.4429 166.944 2.40854 166.872 2.38708 166.693C2.36093 166.474 2.3621 166.167 2.39897 165.763C2.47246 164.959 2.67998 163.85 3.01529 162.467C3.68478 159.704 4.84702 155.91 6.3937 151.387C9.48586 142.343 14.1006 130.423 19.3391 118.088C24.5775 105.754 30.4361 93.014 36.0147 82.3294C41.604 71.624 46.8818 63.043 50.9517 58.9732C67.2794 42.6455 93.834 42.7204 110.263 59.1494C126.692 75.5783 126.767 102.133 110.439 118.461Z" fill="white" stroke="black"/>
<path d="M88.9983 132.131L66.1074 109.24" stroke="black"/>
<path d="M118.671 107.545L93.2363 82.1104" stroke="black"/>
<path d="M78.8241 94.8275L47.4551 63.4585" stroke="black"/>
<path d="M52.9653 123.229L28.8027 99.0667" stroke="black"/>
<path d="M52.5415 149.935L38.9766 136.37" stroke="black"/>
<path d="M125.855 43.9377C132.565 29.9805 129.14 13.5099 115.563 2.26823C98.3008 16.5906 97.4989 39.1338 112.746 54.3116L115.48 57.0463C130.659 72.2928 153.237 71.4908 167.525 54.2287C156.283 40.6524 139.812 37.2276 125.855 43.9377Z" fill="#A1EDB1"/>
</svg>
