<svg width="168" height="168" viewBox="0 0 168 168" fill="none" xmlns="http://www.w3.org/2000/svg">
<g clip-path="url(#clip0_784_218)">
<rect x="56.5" y="0.5" width="55" height="167" fill="#FEE5BE" stroke="black"/>
<rect x="167.5" y="56.5" width="55" height="167" transform="rotate(90 167.5 56.5)" fill="#FEE5BE" stroke="black"/>
<circle cx="84" cy="84" r="43.5" fill="white" stroke="black"/>
<path d="M76.5411 75.2814L76.5409 75.2815C74.9277 75.7106 73.1681 75.1857 71.6118 73.8902C70.0569 72.596 68.7449 70.559 68.0749 68.0784C67.4048 65.5976 67.5142 63.1839 68.2078 61.2935C68.9018 59.4018 70.1597 58.0758 71.7728 57.6473C73.3867 57.2187 75.1464 57.7437 76.7026 59.039C78.2573 60.3331 79.569 62.3698 80.239 64.8504C80.9091 67.3311 80.7997 69.7449 80.1061 71.6353C79.4121 73.527 78.1542 74.853 76.5411 75.2814ZM62.0008 103.405C62.0008 101.223 62.789 98.6787 64.1511 96.0669C65.5099 93.4614 67.4222 90.8231 69.6264 88.4633C71.8309 86.1033 74.3162 84.0339 76.8136 82.5576C79.3169 81.0778 81.7969 80.2148 84.0006 80.2148C86.2043 80.2148 88.6843 81.0778 91.1876 82.5576C93.685 84.0339 96.1702 86.1033 98.3747 88.4633C100.579 90.8231 102.491 93.4614 103.85 96.0669C105.212 98.6787 106 101.223 106 103.405C106 105.329 105.275 106.827 103.963 107.857C102.635 108.899 100.655 109.5 98.0934 109.5C95.3447 109.5 93.0461 108.783 90.8134 108.042C90.6934 108.002 90.5736 107.962 90.4538 107.922C88.3619 107.226 86.2818 106.533 84.0006 106.533C81.7479 106.533 79.6878 107.22 77.6086 107.913C77.4797 107.956 77.3507 107.999 77.2216 108.042C74.9911 108.783 72.6821 109.5 69.9078 109.5C67.3458 109.5 65.3663 108.899 64.0385 107.857C62.7261 106.827 62.0008 105.329 62.0008 103.405ZM58.4728 72.7786C61.5478 72.0366 65.0937 74.4355 66.2621 78.3655C67.4291 82.2906 65.6944 85.9159 62.6527 86.6498C59.5777 87.3917 56.0318 84.9929 54.8634 81.0629C53.6964 77.1378 55.4311 73.5125 58.4728 72.7786ZM105.347 86.651C102.306 85.917 100.571 82.2918 101.738 78.3667C102.908 74.4365 106.452 72.0378 109.527 72.7797C112.569 73.5137 114.304 77.1389 113.137 81.0641C111.967 84.9942 108.422 87.3929 105.347 86.651ZM99.9263 68.0784C99.2562 70.559 97.9446 72.5957 96.3899 73.8898C94.8337 75.185 93.074 75.7101 91.4601 75.2814C89.847 74.853 88.5891 73.527 87.8951 71.6353C87.2015 69.7449 87.0921 67.3311 87.7622 64.8504C88.4322 62.3697 89.7439 60.3327 91.2986 59.0385C92.8548 57.7431 94.6144 57.2182 96.2282 57.6473C97.8415 58.0763 99.0994 59.4024 99.7934 61.294C100.487 63.1842 100.596 65.5976 99.9263 68.0784Z" fill="white" stroke="black"/>
</g>
<defs>
<clipPath id="clip0_784_218">
<rect width="168" height="168" fill="white"/>
</clipPath>
</defs>
</svg>
