<svg width="168" height="168" viewBox="0 0 168 168" fill="none" xmlns="http://www.w3.org/2000/svg">
<g clip-path="url(#clip0_784_205)">
<circle cx="84" cy="84" r="83.5" fill="white" stroke="black"/>
<path d="M29.3179 31.9598C43.1692 18.6659 61.401 10.8919 80.5832 10.1002" stroke="black"/>
<path d="M138.5 46.0406V45.4257L137.898 45.5511L130.214 47.1517C121.101 49.0501 114.57 57.0762 114.57 66.3786V74.1988H98.8402V60.8697H103.12H103.62V60.3697V53.9243C103.62 49.2935 100.695 45.3496 96.5937 43.8268V35V34.5H96.0937H89.7656H89.2656V35V43.8239L84 50.2951L78.7344 43.8239V35V34.5H78.2344H71.9063H71.4063V35V43.8266C67.3048 45.3494 64.3796 49.2933 64.3796 53.9241V60.3695V60.8695H64.8796H69.1596V74.1984H53.4293V66.3782C53.4293 57.0758 46.8985 49.0497 37.7854 47.1513L37.7853 47.1513L30.1019 45.5511L29.5 45.4258V46.0406V80.0145C29.5 94.5014 41.253 106.245 55.7506 106.245H59.9476C56.5209 109.579 54.3864 114.235 54.3864 119.383V121.268H46.9119L37.6812 105.127L37.4332 104.693L36.9993 104.941L31.505 108.078L31.0705 108.326L31.3189 108.76L47.0385 136.248L47.2866 136.682L47.7205 136.434L53.2148 133.297L53.6493 133.049L53.4009 132.615L51.0999 128.591H61.2145H61.7145V128.091V119.383C61.7145 113.328 66.627 108.395 72.6797 108.357L76.2179 110.714L69.9357 126.806L69.8066 127.137L70.0762 127.368C78.0886 134.23 89.9116 134.23 97.924 127.368L98.1936 127.137L98.0645 126.806L91.7823 110.714L95.3205 108.357C101.373 108.395 106.286 113.328 106.286 119.383V128.091V128.591H106.786H128.086C133.828 128.591 138.5 123.924 138.5 118.185C138.5 112.446 133.828 107.778 128.086 107.778C122.344 107.778 117.672 112.446 117.672 118.185C117.672 119.258 117.837 120.293 118.141 121.268H113.614V119.383C113.614 114.236 111.479 109.579 108.053 106.245H112.25C126.747 106.245 138.5 94.5014 138.5 80.0145V46.0406Z" fill="#FEFFBF" stroke="black"/>
</g>
<defs>
<clipPath id="clip0_784_205">
<rect width="168" height="168" fill="white"/>
</clipPath>
</defs>
</svg>
