<svg width="168" height="168" viewBox="0 0 168 168" fill="none" xmlns="http://www.w3.org/2000/svg">
<g clip-path="url(#clip0_784_158)">
<path d="M151.288 47.4858C156.922 51.8302 161.82 55.166 165.979 57.485C159.649 57.3908 153.68 56.851 148.071 55.8669C141.849 54.7754 136.96 53.5783 133.39 52.2801C129.764 50.9618 125.867 49.7543 121.698 48.6571C117.51 47.5552 113.693 47 110.25 47C105.8 47 101.035 48.0012 95.9584 49.9875C91.0679 51.9012 87.0763 54.3352 84 57.2994C80.9237 54.3352 76.9321 51.9012 72.0416 49.9875C66.9655 48.0012 62.2001 47 57.75 47C54.3068 47 50.4897 47.5552 46.3024 48.6571C42.1332 49.7543 38.2356 50.9618 34.6104 52.2801C31.0403 53.5783 26.1507 54.7754 19.9292 55.8669C14.3199 56.851 8.35066 57.3908 2.02069 57.485C6.18019 55.166 11.0782 51.8302 16.7116 47.4858C23.1715 42.504 28.9223 37.7939 33.9632 33.3557C38.9752 28.943 44.2039 25.0216 49.6493 21.591C55.0929 18.1616 59.5335 16.5 63 16.5C67.1901 16.5 71.077 17.4125 74.6683 19.2349C78.2631 21.0592 81.2374 23.5783 83.5968 26.7957L84 27.3455L84.4032 26.7957C86.7626 23.5783 89.7369 21.0592 93.3317 19.2349C96.923 17.4125 100.81 16.5 105 16.5C108.466 16.5 112.907 18.1616 118.351 21.591C123.796 25.0216 129.025 28.943 134.037 33.3557C139.078 37.7939 144.828 42.504 151.288 47.4858ZM83.6096 71.1092L84 71.5973L84.3904 71.1092C87.4026 67.344 91.2797 64.2987 96.032 61.9766C100.784 59.6546 105.522 58.5 110.25 58.5C117.123 58.5 123.777 58.8546 130.211 59.5634C136.652 60.273 142.044 61.1451 146.392 62.1779C150.759 63.2151 154.632 64.2514 158.01 65.2866C161.392 66.3233 163.829 67.1634 165.335 67.808L166.858 68.519C162.66 70.6834 157.779 73.6298 152.218 77.3541C146.254 81.3479 141.11 84.8779 136.785 87.9436C132.49 90.9886 127.866 93.681 122.915 96.0206C117.974 98.3556 113.757 99.5 110.25 99.5C103.816 99.5 98.4361 99.0772 94.1029 98.2376C89.7641 97.397 86.5097 96.145 84.2969 94.5118L84 94.2926L83.7031 94.5118C81.4903 96.145 78.2359 97.397 73.8971 98.2376C69.5639 99.0772 64.184 99.5 57.75 99.5C54.243 99.5 50.0263 98.3556 45.0847 96.0206C40.1335 93.681 35.5105 90.9886 31.2149 87.9436C26.89 84.8779 21.7456 81.3479 15.7821 77.3541C10.1969 73.6136 5.29783 70.6578 1.08682 68.4908C1.51475 68.286 2.03371 68.061 2.64663 67.8158C3.7217 67.3858 6.11096 66.5707 9.8336 65.3663C13.5364 64.1684 17.4589 63.106 21.6013 62.1793C25.7341 61.2549 31.0747 60.4096 37.6283 59.6451C44.1707 58.8818 50.8779 58.5 57.75 58.5C62.4782 58.5 67.216 59.6546 71.968 61.9766C76.7203 64.2987 80.5974 67.344 83.6096 71.1092Z" fill="#FFDAF5" stroke="black"/>
<path d="M118.706 135.235L118.706 143.382L118.706 154L0.500175 154L0.500175 135.235L118.706 135.235Z" fill="white" stroke="black"/>
<path d="M148.187 160.611L148.186 160.612C143.748 162.371 138.928 163.265 133.853 163.265C123.688 163.265 115.382 154.641 115.382 144C115.382 133.359 123.688 124.735 133.853 124.735C139.093 124.735 143.695 127.84 148.301 130.975L148.301 130.975C148.519 131.122 148.736 131.271 148.955 131.42C154.121 134.944 159.618 138.694 167.486 136.748C167.24 142.413 163.861 149.472 158.707 154.111C155.591 156.902 152.031 159.102 148.187 160.611Z" fill="white" stroke="black"/>
</g>
<defs>
<clipPath id="clip0_784_158">
<rect width="168" height="168" fill="white"/>
</clipPath>
</defs>
</svg>
