<svg width="168" height="168" viewBox="0 0 168 168" fill="none" xmlns="http://www.w3.org/2000/svg">
<g clip-path="url(#clip0_784_223)">
<rect x="56.5" y="0.5" width="55" height="167" fill="#FEBEBE" stroke="black"/>
<rect x="167.5" y="56.5" width="55" height="167" transform="rotate(90 167.5 56.5)" fill="#FEBEBE" stroke="black"/>
<circle cx="84" cy="84" r="43.5" fill="white" stroke="black"/>
<path d="M107.029 73.0187L107.029 73.0183C105.096 69.3383 99.4338 66.2218 92.7624 68.0271L92.7612 68.0274C89.5768 68.8805 86.806 70.7081 84.8967 73.2033L84.4997 73.7222L84.1026 73.2033C82.1933 70.7082 79.4227 68.8807 76.2385 68.0275C69.5489 66.2491 63.9027 69.3399 61.9702 73.0183L61.97 73.0187C59.2172 78.2472 60.3044 84.1827 65.4734 90.7572L107.029 73.0187ZM107.029 73.0187C109.782 78.2475 108.695 84.1833 103.541 90.7581L103.54 90.7593C99.4772 95.9752 93.6396 101.184 85.157 107.294L85.1561 107.295C84.9748 107.426 84.7465 107.5 84.5073 107.5C84.2682 107.5 84.0399 107.426 83.8585 107.295L83.8578 107.294M107.029 73.0187L83.8578 107.294M83.8578 107.294C75.3618 101.171 69.5375 95.919 65.4736 90.7575L83.8578 107.294Z" fill="white" stroke="black"/>
</g>
<defs>
<clipPath id="clip0_784_223">
<rect width="168" height="168" fill="white"/>
</clipPath>
</defs>
</svg>
