<svg width="168" height="168" viewBox="0 0 168 168" fill="none" xmlns="http://www.w3.org/2000/svg">
<g clip-path="url(#clip0_784_579)">
<rect x="8.5" y="0.5" width="151" height="167" fill="white" stroke="black"/>
<rect x="0.5" y="0.5" width="167" height="15" fill="white" stroke="black"/>
<rect x="0.5" y="152.5" width="167" height="15" fill="white" stroke="black"/>
<rect x="16.5" y="24.5" width="135" height="55" fill="white" stroke="black"/>
<rect x="16.5" y="88.5" width="135" height="55" fill="white" stroke="black"/>
<path d="M85.158 97.3761C84.8215 97.1294 84.4172 96.9978 84.0031 97C83.5889 97.0022 83.186 97.1381 82.852 97.3883C79.184 100.104 68 109.348 68 121.092C68 127.727 71.896 133.44 77.468 136C76.5147 134.629 76.0017 132.99 76 131.309C75.966 124.727 83.116 117.224 83.42 117.006C83.5888 116.882 83.7913 116.816 83.999 116.816C84.2067 116.816 84.4092 116.882 84.578 117.006C84.882 117.224 92 123.082 92 131.313C92 133.058 91.45 134.67 90.534 136C96.104 133.44 100 127.729 100 121.103C100 109.127 88.836 100.043 85.158 97.3761Z" fill="#B0B8EA"/>
<path d="M84 32C93.334 44.18 98 52.846 98 58C98 59.8385 97.6379 61.659 96.9343 63.3576C96.2307 65.0561 95.1995 66.5995 93.8995 67.8995C92.5995 69.1995 91.0561 70.2307 89.3576 70.9343C87.659 71.6379 85.8385 72 84 72C82.1615 72 80.341 71.6379 78.6424 70.9343C76.9439 70.2307 75.4005 69.1995 74.1005 67.8995C72.8005 66.5995 71.7693 65.0561 71.0657 63.3576C70.3621 61.659 70 59.8385 70 58C70 52.846 74.666 44.18 84 32Z" fill="#DADADA"/>
</g>
<defs>
<clipPath id="clip0_784_579">
<rect width="168" height="168" fill="white"/>
</clipPath>
</defs>
</svg>
