<svg width="168" height="168" viewBox="0 0 168 168" fill="none" xmlns="http://www.w3.org/2000/svg">
<rect x="8.5" y="152.5" width="151" height="15" fill="#FFD5CC" stroke="black"/>
<path d="M138.954 0.4125H136.284L129.469 41.3176L129.412 41.6623H129.062H123.906H123.526L123.495 41.2841L120.086 0.4125H117.405L113.996 41.2841L113.965 41.6623H113.585H108.429H108.079L108.022 41.3176L101.207 0.4125H98.529V53.6248C98.529 54.6094 98.9201 55.5537 99.6163 56.2499C100.313 56.9462 101.257 57.3373 102.241 57.3373H112.983H113.422L113.395 57.7751L109.344 123.791L109.344 123.796C109.271 124.799 109.408 125.806 109.744 126.753C110.081 127.7 110.611 128.568 111.299 129.3C111.988 130.032 112.822 130.613 113.747 131.007C114.672 131.401 115.669 131.598 116.674 131.587L116.679 131.587L120.804 131.587C125.103 131.587 128.397 128.084 128.139 123.791L128.139 123.791M138.954 0.4125L128.551 123.766L128.139 123.791M138.954 0.4125V53.6248C138.954 54.6094 138.563 55.5537 137.866 56.2499C137.17 56.9461 136.226 57.3373 135.241 57.3373H124.5H124.061L124.088 57.7751L128.139 123.791M138.954 0.4125L128.139 123.791M47.4527 56.9996L47.4732 56.6654L47.1504 56.5766C36.4464 53.6316 28.4125 42.378 28.4125 28.8749C28.4125 13.0936 39.3649 0.4125 52.7499 0.4125C66.1349 0.4125 77.0873 13.0936 77.0873 28.8749C77.0873 42.3778 69.0536 53.6234 58.3492 56.5766L58.0267 56.6656L58.0472 56.9996L62.1474 123.791C62.4054 128.083 59.1119 131.587 54.8124 131.587L50.6874 131.587L50.6828 131.587C49.6774 131.598 48.6807 131.401 47.7555 131.007C46.8304 130.613 45.9969 130.032 45.308 129.3C44.619 128.568 44.0894 127.7 43.7528 126.753C43.4161 125.806 43.2797 124.799 43.3521 123.796L43.3524 123.791L47.4527 56.9996Z" fill="white" stroke="black" stroke-width="0.825"/>
</svg>
