<svg width="168" height="168" viewBox="0 0 168 168" fill="none" xmlns="http://www.w3.org/2000/svg">
<g clip-path="url(#clip0_784_121)">
<path d="M166.297 120.101L166.297 120.101C167.575 121.056 167.879 122.84 166.995 124.164L166.995 124.164L138.995 166.164L139.411 166.441L138.995 166.164C138.538 166.85 137.818 167.318 137.004 167.456L137 167.457C136.838 167.485 136.669 167.5 136.499 167.5C135.855 167.5 135.222 167.292 134.701 166.9L134.701 166.899L120.701 156.399L120.7 156.399C119.423 155.444 119.119 153.66 120.003 152.336L120.003 152.336L125.167 144.59L125.43 144.196L125.051 143.912L118.642 139.105L118 138.623L117.851 139.412C114.831 155.375 100.824 167.5 84.0001 167.5C67.1764 167.5 53.1694 155.375 50.1496 139.412L50.0004 138.623L49.3583 139.105L42.9489 143.912L42.5705 144.196L42.8329 144.59L47.9968 152.336L47.9971 152.336C48.8817 153.66 48.5772 155.444 47.3 156.399L47.2994 156.399L33.2996 166.899L33.299 166.9C32.7781 167.292 32.1456 167.5 31.501 167.5C31.3311 167.5 31.162 167.485 31.0008 167.457L30.9964 167.456C30.1826 167.318 29.4619 166.85 29.005 166.164L28.5889 166.441L29.0049 166.164L1.00567 124.164L1.00537 124.164C0.120726 122.84 0.425201 121.056 1.70246 120.101L1.70305 120.101L15.7029 109.601L15.7051 109.599C16.3609 109.101 17.2164 108.898 17.9984 109.043L17.9984 109.043L18.006 109.044C18.8198 109.182 19.5406 109.65 19.9975 110.336L19.9975 110.336L24.9459 117.758L25.2391 118.198L25.6619 117.881L36.1834 109.987L36.4906 109.757L36.3471 109.4C34.0426 103.678 32.219 97.4235 30.9246 90.7048L30.8926 90.5391L30.7668 90.4266C25.1225 85.3828 21.5015 78.1361 21.5015 70.0002C21.5015 62.349 24.6537 55.4299 29.7166 50.4384L29.8278 50.3288L29.8569 50.1753C35.4072 20.8209 57.5172 0.5 84.0001 0.5C110.483 0.5 132.593 20.8209 138.143 50.1753L138.172 50.3287L138.283 50.4384C143.346 55.4302 146.498 62.349 146.498 70.0002C146.498 78.1361 142.877 85.3828 137.233 90.4266L137.107 90.5391L137.075 90.7048C135.781 97.4235 133.958 103.678 131.653 109.4L131.509 109.757L131.817 109.987L142.338 117.881L142.761 118.198L143.054 117.758L148.002 110.336L147.586 110.059L148.002 110.336C148.459 109.65 149.18 109.182 149.994 109.044L150.004 109.042C150.775 108.896 151.631 109.1 152.296 109.6L152.297 109.601L166.297 120.101ZM27.5013 69.9999C27.5013 81.8562 37.1447 91.4999 49.0008 91.4999C60.8569 91.4999 70.5003 81.8562 70.5003 69.9999C70.5003 58.1436 60.8569 48.4999 49.0008 48.4999C37.1447 48.4999 27.5013 58.1436 27.5013 69.9999ZM62.5006 133C62.5006 144.857 72.144 154.5 84.0001 154.5C95.8562 154.5 105.5 144.856 105.5 133C105.5 121.144 95.8562 111.5 84.0001 111.5C72.144 111.5 62.5006 121.144 62.5006 133ZM97.4999 69.9999C97.4999 81.8562 107.143 91.4999 118.999 91.4999C130.856 91.4999 140.499 81.8562 140.499 69.9999C140.499 58.1436 130.856 48.4999 118.999 48.4999C107.143 48.4999 97.4999 58.1436 97.4999 69.9999Z" fill="white" stroke="black"/>
<path d="M76.9225 121.347L76.9224 121.347C75.6808 120.218 73.6519 120.218 72.4106 121.347L72.4106 121.347C71.1964 122.45 71.1965 124.217 72.4106 125.32L72.4106 125.32L76.0772 128.653C76.6931 129.213 77.5083 129.5 78.3333 129.5C79.1582 129.5 79.9731 129.213 80.5894 128.653L76.9225 121.347ZM76.9225 121.347L80.5894 124.68L80.5894 124.68M76.9225 121.347L80.5894 124.68M80.5894 124.68C81.8035 125.783 81.8036 127.55 80.5895 128.653L80.5894 124.68Z" fill="#5DD8AA" stroke="black"/>
<path d="M88.3302 128.67L88.3301 128.67C87.2233 127.563 87.2233 125.771 88.3302 124.664L91.6634 121.33C92.7703 120.223 94.563 120.223 95.6698 121.33L95.6699 121.33C96.7767 122.437 96.7767 124.23 95.6698 125.336L92.3367 128.67C92.3366 128.67 92.3366 128.67 92.3366 128.67C91.7827 129.223 91.0587 129.5 90.3334 129.5C89.6079 129.5 88.8836 129.223 88.3302 128.67Z" fill="#5DD8AA" stroke="black"/>
<path d="M92.3363 137.33L92.3363 137.33C91.2294 136.223 89.4367 136.223 88.3302 137.33L88.3302 137.33C87.2233 138.437 87.2233 140.23 88.3301 141.336L88.3302 141.336L91.6634 144.67C92.2169 145.223 92.9412 145.5 93.6666 145.5C94.392 145.5 95.116 145.223 95.6698 144.67C95.6699 144.67 95.6699 144.67 95.6699 144.67M92.3363 137.33L96.0234 140.31C97.3255 141.612 97.3255 143.721 96.0234 145.023L95.6699 144.67M92.3363 137.33L95.6699 140.664L95.6699 140.664C96.7767 141.77 96.7767 143.563 95.6699 144.67M92.3363 137.33L95.6699 144.67" fill="#5DD8AA" stroke="black"/>
<path d="M72.4106 144.653L72.4106 144.653C71.1965 143.55 71.1964 141.784 72.4106 140.68L76.0772 137.346C76.0772 137.346 76.0772 137.346 76.0772 137.346C77.3189 136.218 79.3478 136.218 80.5894 137.346C81.8035 138.45 81.8036 140.216 80.5894 141.32L76.9229 144.653C76.9228 144.653 76.9228 144.653 76.9228 144.653C76.3065 145.213 75.4916 145.5 74.6667 145.5C73.8417 145.5 73.0265 145.213 72.4106 144.653Z" fill="#5DD8AA" stroke="black"/>
<path d="M143 118L125 145" stroke="black"/>
<path d="M25 118L43 145" stroke="black"/>
<path d="M131.5 109.5L118 138.5M36.5 109.5L50 138.5" stroke="black"/>
</g>
<defs>
<clipPath id="clip0_784_121">
<rect width="168" height="168" fill="white"/>
</clipPath>
</defs>
</svg>
