<svg width="168" height="168" viewBox="0 0 168 168" fill="none" xmlns="http://www.w3.org/2000/svg">
<rect x="0.5" y="0.5" width="167" height="111" fill="white" stroke="black"/>
<rect x="8.5" y="8.5" width="151" height="95" fill="#54D780" fill-opacity="0.28" stroke="black"/>
<path d="M8 166.5L58.5 80L17 166.5H8Z" fill="white" stroke="black"/>
<path d="M40 58.6243H54.0397V56.6522H42.1734V47.5778H53.0751V45.6057H42.1734V36.5548H53.8073V34.5826H40V58.6243Z" fill="black"/>
<path d="M60.3157 53.5648H73.5535V51.6278H60.3157V53.5648ZM60.3157 46.8383H73.5535V44.9013H60.3157V46.8383Z" fill="black"/>
<path d="M80.3206 58.6243H82.3893V47.073C82.3893 44.2674 84.2373 42.2717 86.7128 42.2717C89.1535 42.2717 90.5714 43.9152 90.5714 46.357V58.6243H92.6867V46.7561C92.6867 44.1617 94.2208 42.2717 96.9404 42.2717C99.2998 42.2717 100.869 43.7039 100.869 46.5448V58.6243H102.938V46.5448C102.938 42.5065 100.88 40.3583 97.568 40.3583C94.9646 40.3583 93.0818 41.6378 92.2799 43.6335H92.1288C91.3385 41.5909 89.7695 40.3583 87.3056 40.3583C84.9695 40.3583 83.2261 41.497 82.5172 43.3635H82.3312V40.593H80.3206V58.6243Z" fill="black"/>
<path d="M115.388 59C119.107 59 121.722 56.6287 122.199 53.3652H120.107C119.63 55.6661 117.759 57.0865 115.388 57.0865C111.89 57.0865 109.577 54.0109 109.577 49.6204C109.577 45.2535 111.959 42.2483 115.388 42.2483C117.933 42.2483 119.653 43.9035 120.095 45.9461H122.187C121.699 42.6004 118.933 40.3465 115.353 40.3465C110.681 40.3465 107.496 44.2674 107.496 49.6909C107.496 55.0674 110.588 59 115.388 59Z" fill="black"/>
<path d="M125.633 46.6035H136V44.9952H128.411V44.913L131.932 41.5674C134.466 39.1843 135.465 37.9165 135.465 36.097C135.465 33.7726 133.466 32 130.596 32C127.713 32 125.656 33.7491 125.656 36.273H127.516C127.516 34.7117 128.736 33.5613 130.561 33.5613C132.304 33.5613 133.606 34.5943 133.606 36.1322C133.606 37.447 132.781 38.3978 130.968 40.1352L125.633 45.1948V46.6035Z" fill="black"/>
</svg>
