<svg width="168" height="168" viewBox="0 0 168 168" fill="none" xmlns="http://www.w3.org/2000/svg">
<rect x="17.5" y="0.5" width="134" height="167" fill="white" stroke="black"/>
<path d="M84 1V167" stroke="black"/>
<rect x="120.5" y="56.5" width="18" height="54" stroke="black"/>
<rect x="124.5" y="61.5" width="10" height="7" fill="white" stroke="black"/>
<rect x="124.5" y="73.5" width="10" height="7" fill="#A0FFA4" stroke="black"/>
<rect x="124.5" y="86.5" width="10" height="7" fill="white" stroke="black"/>
<rect x="124.5" y="98.5" width="10" height="7" fill="white" stroke="black"/>
<path d="M130.354 15.6464C130.158 15.4512 129.842 15.4512 129.646 15.6464L126.464 18.8284C126.269 19.0237 126.269 19.3403 126.464 19.5355C126.66 19.7308 126.976 19.7308 127.172 19.5355L130 16.7071L132.828 19.5355C133.024 19.7308 133.34 19.7308 133.536 19.5355C133.731 19.3403 133.731 19.0237 133.536 18.8284L130.354 15.6464ZM130.5 48L130.5 16L129.5 16L129.5 48L130.5 48Z" fill="black"/>
<path d="M129.646 155.354C129.842 155.549 130.158 155.549 130.354 155.354L133.536 152.172C133.731 151.976 133.731 151.66 133.536 151.464C133.34 151.269 133.024 151.269 132.828 151.464L130 154.293L127.172 151.464C126.976 151.269 126.66 151.269 126.464 151.464C126.269 151.66 126.269 151.976 126.464 152.172L129.646 155.354ZM129.5 123L129.5 155L130.5 155L130.5 123L129.5 123Z" fill="black"/>
</svg>
