<svg width="168" height="168" viewBox="0 0 168 168" fill="none" xmlns="http://www.w3.org/2000/svg">
<g clip-path="url(#clip0_784_92)">
<path d="M165.943 165.851C165.382 165.353 164.707 164.754 163.927 164.062C161.405 161.821 157.792 158.606 153.434 154.705C144.717 146.904 133.016 136.365 121.08 125.409C109.143 114.453 96.9741 103.084 87.3194 93.6226C82.4917 88.8917 78.2968 84.642 75.0754 81.1618C71.8388 77.6653 69.6267 74.9891 68.7215 73.3908C67.7848 71.7368 67.1832 70.472 66.8592 69.5056C66.5298 68.5234 66.519 67.9402 66.6378 67.5932C66.74 67.295 66.9764 67.0665 67.499 66.8984C68.0412 66.724 68.7984 66.6479 69.786 66.6166C70.3412 66.5989 70.9549 66.5962 71.6188 66.5933C75.6075 66.5756 81.4092 66.5499 87.2544 63.2396C90.7143 61.2802 93.4082 57.9009 95.6175 54.2214C97.4667 51.1415 99.0056 47.7989 100.373 44.8294C100.64 44.2494 100.9 43.6835 101.155 43.1367C101.94 41.4545 102.669 39.9575 103.38 38.7551C104.099 37.5396 104.762 36.6914 105.392 36.2459C105.698 36.0294 105.974 35.9234 106.23 35.9002C106.481 35.8774 106.757 35.9302 107.073 36.1047C107.733 36.4696 108.526 37.3426 109.457 38.9862C113.211 45.6151 127.579 77.8985 141.031 108.58C147.751 123.908 154.236 138.82 159.041 149.901C161.443 155.441 163.425 160.023 164.807 163.22C165.249 164.243 165.63 165.125 165.943 165.851Z" fill="white" stroke="black" stroke-width="1.1553"/>
<rect x="80.5" y="0.5" width="17" height="39" rx="8.5" fill="white" stroke="black"/>
<path d="M110.58 73.1943C109.441 74.6666 106.9 77.2399 103.287 80.6419C99.6851 84.033 95.048 88.2189 89.7428 92.905C79.1329 102.277 65.8622 113.639 52.8818 124.625C39.9018 135.611 27.2144 146.218 17.7718 154.079C13.0505 158.01 9.14051 161.254 6.41091 163.515C5.53177 164.243 4.77507 164.87 4.15315 165.384C4.50071 164.659 4.92364 163.777 5.41536 162.752C6.94568 159.563 9.14233 154.994 11.8076 149.473C17.1382 138.432 24.3431 123.584 31.8406 108.358C39.3384 93.1312 47.1275 77.5289 53.6269 64.9776C56.8768 58.7016 59.8025 53.1917 62.2072 48.8743C64.6194 44.5435 66.488 41.4482 67.6282 39.974C76.8017 28.1133 93.8533 25.935 105.714 35.1085C117.575 44.2821 119.753 61.3337 110.58 73.1943Z" fill="white" stroke="black" stroke-width="1.1553"/>
<circle cx="89.1037" cy="56.5841" r="17.9072" transform="rotate(37.7198 89.1037 56.5841)" fill="#C5BCFF" stroke="black" stroke-width="1.1553"/>
<path d="M65 131L40 151.5" stroke="black"/>
</g>
<defs>
<clipPath id="clip0_784_92">
<rect width="168" height="168" fill="white"/>
</clipPath>
</defs>
</svg>
