<svg width="168" height="168" viewBox="0 0 168 168" fill="none" xmlns="http://www.w3.org/2000/svg">
<rect x="0.5" y="0.5" width="167" height="143" fill="white" stroke="black"/>
<rect x="14.5" y="16.5" width="137" height="111" fill="white" stroke="black"/>
<path d="M84.382 68.6048L90.1366 74.3719L97.6362 81.8879L13.961 165.381L0.706778 152.098L84.382 68.6048Z" fill="white" stroke="black"/>
<path d="M123.176 65.7441L123.175 65.7456C121.276 70.1251 118.495 74.1629 114.903 77.7473C107.707 84.927 95.7367 84.6893 88.2205 77.1567C80.7043 69.6241 80.4928 57.6529 87.6881 50.4732C91.3977 46.7717 96.8483 45.7188 102.323 44.6846L102.323 44.6846C102.581 44.6356 102.84 44.587 103.1 44.5382C109.246 43.3838 115.786 42.1554 119.981 35.2205C123.809 39.4044 126.403 46.7883 126.031 53.7126C125.797 57.8893 124.83 61.9613 123.176 65.7441Z" fill="white" stroke="black"/>
<path d="M123.176 65.7441L123.175 65.7456C121.276 70.1251 118.495 74.1629 114.903 77.7473C113.994 78.654 113.33 79.0435 112.871 79.1325C112.656 79.1741 112.494 79.1488 112.361 79.0868C112.222 79.0224 112.078 78.9006 111.933 78.6916C111.635 78.2603 111.398 77.5456 111.227 76.5633C111.059 75.5941 110.963 74.4204 110.913 73.1146C110.841 71.2091 110.865 69.062 110.89 66.9064C110.899 66.1023 110.909 65.2971 110.913 64.5027C110.928 61.6041 110.877 58.835 110.49 56.9019C110.267 55.7832 109.536 54.9814 108.537 54.4185C107.55 53.862 106.271 53.519 104.859 53.3054C102.035 52.8783 98.5077 52.9477 95.3173 53.0178L95.1216 53.0221C93.5891 53.0559 92.1383 53.0879 90.8656 53.0657C89.5314 53.0424 88.4328 52.9595 87.6603 52.7709C87.2734 52.6764 87.0046 52.5637 86.8347 52.4451C86.6748 52.3335 86.6283 52.237 86.6159 52.1543C86.601 52.055 86.6206 51.8741 86.7881 51.5776C86.9542 51.2835 87.242 50.9183 87.6881 50.4732C91.3977 46.7717 96.8483 45.7188 102.323 44.6846L102.323 44.6846C102.581 44.6356 102.84 44.587 103.1 44.5382C109.246 43.3838 115.786 42.1554 119.981 35.2205C123.809 39.4044 126.403 46.7883 126.031 53.7126C125.797 57.8893 124.83 61.9613 123.176 65.7441Z" fill="#FFF4BC" stroke="black"/>
</svg>
