<svg width="168" height="168" viewBox="0 0 168 168" fill="none" xmlns="http://www.w3.org/2000/svg">
<path d="M33.5 167.5L64 0.5H104L136 167.5" stroke="black"/>
<path d="M88 0.5L113 167.5" stroke="black"/>
<path d="M80 0.5L55 167" stroke="black"/>
<path d="M90.5 16H78L40 24.5L75.5 32H93L128 24.5L90.5 16Z" fill="#FDFFA5" stroke="black"/>
<path d="M72 56H96.5L144.5 68L100.5 80H68.5L23.5 68L72 56Z" fill="#FDFFA5" stroke="black"/>
<path d="M128 24.5V48" stroke="black"/>
<path d="M146 68V91.5" stroke="black"/>
<path d="M160 128V151.5" stroke="black"/>
<path d="M8 128V151.5" stroke="black"/>
<path d="M24 68V91.5" stroke="black"/>
<path d="M40 24V47.5" stroke="black"/>
<path d="M63 112H104.5L160.5 128.5L109.5 144H59L8 128.5L63 112Z" fill="#FDFFA5" stroke="black"/>
<path d="M96 1L124.5 167.5" stroke="black"/>
<path d="M71.5 1L43 167.5" stroke="black"/>
</svg>
