<svg width="36" height="36" viewBox="0 0 36 36" fill="none" xmlns="http://www.w3.org/2000/svg">
<circle cx="18" cy="18" r="18" fill="url(#paint0_linear_12618_6765)"/>
<circle cx="18" cy="18" r="18" fill="url(#paint1_radial_12618_6765)"/>
<path d="M18.0032 13.7272C15.6384 13.7272 13.731 15.635 13.731 18.0003C13.731 20.3656 15.6384 22.2734 18.0032 22.2734C20.3679 22.2734 22.2753 20.3656 22.2753 18.0003C22.2753 15.635 20.3679 13.7272 18.0032 13.7272ZM18.0032 20.7784C16.475 20.7784 15.2257 19.5326 15.2257 18.0003C15.2257 16.4681 16.4713 15.2222 18.0032 15.2222C19.535 15.2222 20.7806 16.4681 20.7806 18.0003C20.7806 19.5326 19.5313 20.7784 18.0032 20.7784ZM23.4466 13.5524C23.4466 14.1065 23.0004 14.5491 22.4501 14.5491C21.8961 14.5491 21.4536 14.1028 21.4536 13.5524C21.4536 13.002 21.8998 12.5557 22.4501 12.5557C23.0004 12.5557 23.4466 13.002 23.4466 13.5524ZM26.2761 14.564C26.2129 13.2289 25.908 12.0462 24.9301 11.0718C23.9559 10.0975 22.7736 9.79251 21.4387 9.72557C20.063 9.64747 15.9396 9.64747 14.5639 9.72557C13.2328 9.78879 12.0504 10.0937 11.0725 11.0681C10.0946 12.0425 9.79346 13.2251 9.72653 14.5603C9.64845 15.9363 9.64845 20.0606 9.72653 21.4367C9.78974 22.7718 10.0946 23.9544 11.0725 24.9288C12.0504 25.9032 13.229 26.2081 14.5639 26.2751C15.9396 26.3532 20.063 26.3532 21.4387 26.2751C22.7736 26.2119 23.9559 25.9069 24.9301 24.9288C25.9043 23.9544 26.2091 22.7718 26.2761 21.4367C26.3542 20.0606 26.3542 15.94 26.2761 14.564ZM24.4988 22.9131C24.2088 23.642 23.6473 24.2036 22.9149 24.4974C21.818 24.9325 19.2153 24.8321 18.0032 24.8321C16.791 24.8321 14.1846 24.9288 13.0915 24.4974C12.3627 24.2073 11.8013 23.6458 11.5075 22.9131C11.0725 21.816 11.1729 19.2127 11.1729 18.0003C11.1729 16.7879 11.0762 14.1809 11.5075 13.0875C11.7975 12.3586 12.359 11.797 13.0915 11.5032C14.1883 11.0681 16.791 11.1685 18.0032 11.1685C19.2153 11.1685 21.8217 11.0718 22.9149 11.5032C23.6436 11.7933 24.2051 12.3549 24.4988 13.0875C24.9338 14.1846 24.8334 16.7879 24.8334 18.0003C24.8334 19.2127 24.9338 21.8197 24.4988 22.9131Z" fill="white"/>
<defs>
<linearGradient id="paint0_linear_12618_6765" x1="10.2" y1="1.00732e-07" x2="18" y2="36" gradientUnits="userSpaceOnUse">
<stop stop-color="#3350F3"/>
<stop offset="0.552532" stop-color="#D41EB0"/>
<stop offset="1" stop-color="#F8214E"/>
</linearGradient>
<radialGradient id="paint1_radial_12618_6765" cx="0" cy="0" r="1" gradientUnits="userSpaceOnUse" gradientTransform="translate(7.2 32.4) rotate(-31.6075) scale(27.4758)">
<stop stop-color="#FFD43D"/>
<stop offset="1" stop-color="#F75F2B" stop-opacity="0.12"/>
</radialGradient>
</defs>
</svg>
