<svg width="36" height="36" viewBox="0 0 36 36" fill="none" xmlns="http://www.w3.org/2000/svg">
<circle cx="18" cy="18" r="18" fill="#3F8AE0"/>
<path fill-rule="evenodd" clip-rule="evenodd" d="M18.8978 22.9614C18.8978 22.9614 19.2287 22.9291 19.3981 22.7696C19.5533 22.6234 19.5479 22.3476 19.5479 22.3476C19.5479 22.3476 19.5273 21.0595 20.2096 20.8694C20.8822 20.6823 21.7457 22.115 22.6621 22.6659C23.3543 23.0824 23.8798 22.9912 23.8798 22.9912L26.3286 22.9614C26.3286 22.9614 27.6091 22.8922 27.002 22.0097C26.9518 21.9374 26.6478 21.3566 25.1818 20.1636C23.6457 18.9149 23.852 19.1169 25.7009 16.9565C26.8272 15.6409 27.2773 14.8378 27.1365 14.4943C27.0029 14.1658 26.1744 14.2531 26.1744 14.2531L23.418 14.268C23.418 14.268 23.2135 14.2436 23.062 14.323C22.914 14.4008 22.8181 14.5823 22.8181 14.5823C22.8181 14.5823 22.3823 15.6001 21.8004 16.4661C20.5728 18.2925 20.0823 18.3891 19.8815 18.276C19.4143 18.0111 19.5308 17.2135 19.5308 16.6468C19.5308 14.8763 19.8375 14.1383 18.9346 13.9474C18.6351 13.8837 18.4145 13.842 17.6478 13.835C16.6642 13.8263 15.832 13.8381 15.3604 14.0401C15.0465 14.1745 14.8044 14.4747 14.9524 14.492C15.1344 14.5132 15.5469 14.5894 15.7657 14.8503C16.0481 15.1875 16.0383 15.9435 16.0383 15.9435C16.0383 15.9435 16.2006 18.0276 15.659 18.2862C15.2877 18.4638 14.7784 18.1015 13.6836 16.4441C13.1231 15.5953 12.6999 14.657 12.6999 14.657C12.6999 14.657 12.6183 14.4818 12.4722 14.3874C12.2955 14.2735 12.0489 14.2381 12.0489 14.2381L9.42971 14.2531C9.42971 14.2531 9.03606 14.2625 8.8917 14.4126C8.76347 14.5454 8.88183 14.8212 8.88183 14.8212C8.88183 14.8212 10.9325 19.0265 13.255 21.146C15.3846 23.0887 17.802 22.9614 17.802 22.9614H18.8978Z" fill="white"/>
</svg>
