<svg width="36" height="36" viewBox="0 0 36 36" fill="none" xmlns="http://www.w3.org/2000/svg">
<circle cx="18" cy="18" r="18" fill="#00D15D"/>
<path fill-rule="evenodd" clip-rule="evenodd" d="M18.0362 26.1904H18.0328C16.6439 26.19 15.2792 25.8432 14.0671 25.1852L9.66797 26.3337L10.8453 22.0541C10.119 20.8016 9.73692 19.3808 9.73754 17.9252C9.73936 13.3717 13.4621 9.66699 18.0361 9.66699C20.2561 9.66795 22.3396 10.528 23.9064 12.0891C25.4731 13.6501 26.3355 15.7251 26.3346 17.9318C26.3328 22.4843 22.6116 26.1886 18.0362 26.1904ZM14.2713 23.6901L14.5232 23.8389C15.5822 24.4643 16.7961 24.7952 18.0338 24.7957H18.0365C21.8382 24.7957 24.9323 21.7163 24.9338 17.9313C24.9346 16.0971 24.2178 14.3725 22.9156 13.075C21.6133 11.7775 19.8816 11.0626 18.0393 11.062C14.2347 11.062 11.1405 14.141 11.139 17.9257C11.1385 19.2228 11.5031 20.486 12.1936 21.5789L12.3576 21.8386L11.6608 24.3716L14.2713 23.6901ZM22.217 19.8956C22.1651 19.8095 22.0269 19.7579 21.8196 19.6546C21.6122 19.5513 20.5928 19.0521 20.4027 18.9832C20.2127 18.9144 20.0744 18.88 19.9362 19.0865C19.798 19.293 19.4006 19.7579 19.2796 19.8956C19.1587 20.0333 19.0377 20.0506 18.8304 19.9473C18.6231 19.844 17.955 19.6261 17.1629 18.923C16.5465 18.3758 16.1304 17.7001 16.0094 17.4935C15.8885 17.2869 15.9965 17.1753 16.1003 17.0724C16.1936 16.9799 16.3077 16.8313 16.4114 16.7108C16.515 16.5904 16.5496 16.5042 16.6187 16.3666C16.6878 16.2288 16.6533 16.1083 16.6014 16.005C16.5496 15.9017 16.1349 14.886 15.9621 14.4728C15.7938 14.0704 15.6229 14.1249 15.4956 14.1186C15.3748 14.1125 15.2364 14.1113 15.0982 14.1113C14.96 14.1113 14.7353 14.1629 14.5453 14.3695C14.3552 14.5761 13.8196 15.0754 13.8196 16.091C13.8196 17.1068 14.5625 18.088 14.6662 18.2257C14.7699 18.3635 16.1283 20.4478 18.2084 21.3417C18.7031 21.5543 19.0893 21.6813 19.3905 21.7764C19.8872 21.9335 20.3392 21.9113 20.6964 21.8581C21.0949 21.7989 21.9232 21.359 22.0961 20.8769C22.2688 20.3948 22.2688 19.9817 22.217 19.8956Z" fill="white"/>
</svg>
