<svg width="168" height="168" viewBox="0 0 168 168" fill="none" xmlns="http://www.w3.org/2000/svg">
<g clip-path="url(#clip0_784_750)">
<rect x="0.5" y="8.5" width="71" height="71" fill="white" stroke="black"/>
<path d="M103 131L48 131" stroke="black" stroke-dasharray="4 4"/>
<circle cx="132" cy="44" r="35.5" fill="#7BEDC2" stroke="black"/>
<path d="M167.5 131L132 96.5L96.5 131L132 167L167.5 131Z" fill="white" stroke="black"/>
<path d="M72.5 166.5L37 96.5L1 166.5H72.5Z" fill="white" stroke="black"/>
<path d="M96.3536 40.3536C96.5488 40.1583 96.5488 39.8417 96.3536 39.6464L93.1716 36.4645C92.9763 36.2692 92.6597 36.2692 92.4645 36.4645C92.2692 36.6597 92.2692 36.9763 92.4645 37.1716L95.2929 40L92.4645 42.8284C92.2692 43.0237 92.2692 43.3403 92.4645 43.5355C92.6597 43.7308 92.9763 43.7308 93.1716 43.5355L96.3536 40.3536ZM72 40.5H96V39.5H72V40.5Z" fill="black"/>
<path d="M131.646 96.3536C131.842 96.5488 132.158 96.5488 132.354 96.3536L135.536 93.1716C135.731 92.9763 135.731 92.6597 135.536 92.4645C135.34 92.2692 135.024 92.2692 134.828 92.4645L132 95.2929L129.172 92.4645C128.976 92.2692 128.66 92.2692 128.464 92.4645C128.269 92.6597 128.269 92.9763 128.464 93.1716L131.646 96.3536ZM131.5 80V96H132.5V80H131.5Z" fill="black"/>
<path d="M37.3536 79.6464C37.1583 79.4512 36.8417 79.4512 36.6464 79.6464L33.4645 82.8284C33.2692 83.0237 33.2692 83.3403 33.4645 83.5355C33.6597 83.7308 33.9763 83.7308 34.1716 83.5355L37 80.7071L39.8284 83.5355C40.0237 83.7308 40.3403 83.7308 40.5355 83.5355C40.7308 83.3403 40.7308 83.0237 40.5355 82.8284L37.3536 79.6464ZM37.5 96L37.5 80L36.5 80L36.5 96L37.5 96Z" fill="black"/>
</g>
<defs>
<clipPath id="clip0_784_750">
<rect width="168" height="168" fill="white"/>
</clipPath>
</defs>
</svg>
