<svg width="168" height="168" viewBox="0 0 168 168" fill="none" xmlns="http://www.w3.org/2000/svg">
<g clip-path="url(#clip0_784_396)">
<rect x="0.5" y="0.5" width="167" height="167" fill="white" stroke="black"/>
<path d="M29 12.1871L32.2296 19.1413L32.3467 19.3936L32.6229 19.4271L40.2348 20.3496L34.6189 25.5701L34.4152 25.7595L34.4687 26.0325L35.9435 33.5569L29.2431 29.8291L29 29.6938L28.7569 29.8291L22.0565 33.5569L23.5313 26.0325L23.5848 25.7595L23.3811 25.5701L17.7652 20.3496L25.3771 19.4271L25.6533 19.3936L25.7704 19.1413L29 12.1871Z" fill="#FFD18B" stroke="black"/>
<path d="M84 12.1871L87.2296 19.1413L87.3467 19.3936L87.6229 19.4271L95.2348 20.3496L89.6189 25.5701L89.4152 25.7595L89.4687 26.0325L90.9435 33.5569L84.2431 29.8291L84 29.6938L83.7569 29.8291L77.0565 33.5569L78.5313 26.0325L78.5848 25.7595L78.3811 25.5701L72.7652 20.3496L80.3771 19.4271L80.6533 19.3936L80.7704 19.1413L84 12.1871Z" fill="#FFD18B" stroke="black"/>
<path d="M57.5 12.151L60.8744 19.1479L60.9937 19.3955L61.2668 19.4273L69.1786 20.3507L63.355 25.5638L63.1414 25.755L63.1986 26.036L64.7328 33.5737L57.7361 29.8253L57.5 29.6988L57.2639 29.8253L50.2672 33.5737L51.8014 26.036L51.8586 25.755L51.645 25.5638L45.8214 20.3507L53.7332 19.4273L54.0062 19.3955L54.1256 19.1479L57.5 12.151Z" fill="#FFD18B" stroke="black"/>
<path d="M112.5 12.151L115.874 19.1479L115.994 19.3955L116.267 19.4273L124.179 20.3507L118.355 25.5638L118.141 25.755L118.199 26.036L119.733 33.5737L112.736 29.8253L112.5 29.6988L112.264 29.8253L105.267 33.5737L106.801 26.036L106.859 25.755L106.645 25.5638L100.821 20.3507L108.733 19.4273L109.006 19.3955L109.126 19.1479L112.5 12.151Z" fill="#FFD18B" stroke="black"/>
<path d="M139 12.1871L142.23 19.1413L142.347 19.3936L142.623 19.4271L150.235 20.3496L144.619 25.5701L144.415 25.7595L144.469 26.0325L145.943 33.5569L139.243 29.8291L139 29.6938L138.757 29.8291L132.057 33.5569L133.531 26.0325L133.585 25.7595L133.381 25.5701L127.765 20.3496L135.377 19.4271L135.653 19.3936L135.77 19.1413L139 12.1871Z" fill="#FFD18B" stroke="black"/>
<path d="M0 48H167.5" stroke="black"/>
<mask id="path-8-inside-1_784_396" fill="white">
<path d="M112 64H152V152H112V64Z"/>
</mask>
<path d="M112 64H152V152H112V64Z" fill="white"/>
<path d="M112 64V63H111V64H112ZM152 64H153V63H152V64ZM152 152V153H153V152H152ZM112 152H111V153H112V152ZM112 65H152V63H112V65ZM151 64V152H153V64H151ZM152 151H112V153H152V151ZM113 152V64H111V152H113Z" fill="black" mask="url(#path-8-inside-1_784_396)"/>
<mask id="path-10-inside-2_784_396" fill="white">
<path d="M64 64H104V152H64V64Z"/>
</mask>
<path d="M64 64H104V152H64V64Z" fill="white"/>
<path d="M64 64V63H63V64H64ZM104 64H105V63H104V64ZM104 152V153H105V152H104ZM64 152H63V153H64V152ZM64 65H104V63H64V65ZM103 64V152H105V64H103ZM104 151H64V153H104V151ZM65 152V64H63V152H65Z" fill="black" mask="url(#path-10-inside-2_784_396)"/>
<mask id="path-12-inside-3_784_396" fill="white">
<path d="M16 64H56V152H16V64Z"/>
</mask>
<path d="M16 64H56V152H16V64Z" fill="white"/>
<path d="M16 64V63H15V64H16ZM56 64H57V63H56V64ZM56 152V153H57V152H56ZM16 152H15V153H16V152ZM16 65H56V63H16V65ZM55 64V152H57V64H55ZM56 151H16V153H56V151ZM17 152V64H15V152H17Z" fill="black" mask="url(#path-12-inside-3_784_396)"/>
<ellipse cx="122" cy="112" rx="1.99999" ry="2" fill="black"/>
<circle cx="74" cy="112" r="2" fill="black"/>
<circle cx="26" cy="112" r="2" fill="black"/>
</g>
<defs>
<clipPath id="clip0_784_396">
<rect width="168" height="168" fill="white"/>
</clipPath>
</defs>
</svg>
