<svg width="168" height="168" viewBox="0 0 168 168" fill="none" xmlns="http://www.w3.org/2000/svg">
<path d="M83 50L83 152" stroke="black"/>
<rect x="16.5" y="152.5" width="135" height="15" fill="white" stroke="black"/>
<rect x="71.5" y="40.5" width="23" height="16" rx="4.5" fill="white" stroke="black"/>
<mask id="path-4-inside-1_1022_29402" fill="white">
<path fill-rule="evenodd" clip-rule="evenodd" d="M151.819 137C151.939 135.53 152 134.045 152 132.548C152 99.1082 121.555 72 84 72C46.4446 72 16 99.1082 16 132.548C16 134.045 16.061 135.53 16.181 137H151.819Z"/>
</mask>
<path fill-rule="evenodd" clip-rule="evenodd" d="M151.819 137C151.939 135.53 152 134.045 152 132.548C152 99.1082 121.555 72 84 72C46.4446 72 16 99.1082 16 132.548C16 134.045 16.061 135.53 16.181 137H151.819Z" fill="white"/>
<path d="M151.819 137V138H152.741L152.816 137.081L151.819 137ZM16.181 137L15.1843 137.081L15.2593 138H16.181V137ZM151 132.548C151 134.018 150.94 135.476 150.822 136.919L152.816 137.081C152.938 135.584 153 134.072 153 132.548H151ZM84 73C121.115 73 151 99.7665 151 132.548H153C153 98.45 121.995 71 84 71V73ZM17 132.548C17 99.7665 46.8846 73 84 73V71C46.0046 71 15 98.45 15 132.548H17ZM17.1777 136.919C17.0599 135.476 17 134.018 17 132.548H15C15 134.072 15.0622 135.584 15.1843 137.081L17.1777 136.919ZM16.181 138H151.819V136H16.181V138Z" fill="black" mask="url(#path-4-inside-1_1022_29402)"/>
<path d="M118 89C123.333 93.5 130.4 99.6 132 102" stroke="black"/>
<path d="M29 1.18708L32.2296 8.1413L32.3467 8.3936L32.6229 8.42707L40.2348 9.34961L34.6189 14.5701L34.4152 14.7595L34.4687 15.0325L35.9435 22.5569L29.2431 18.8291L29 18.6938L28.7569 18.8291L22.0565 22.5569L23.5313 15.0325L23.5848 14.7595L23.3811 14.5701L17.7652 9.34961L25.3771 8.42707L25.6533 8.3936L25.7704 8.1413L29 1.18708Z" fill="#FFD18B" stroke="black"/>
<path d="M84 1.18708L87.2296 8.1413L87.3467 8.3936L87.6229 8.42707L95.2348 9.34961L89.6189 14.5701L89.4152 14.7595L89.4687 15.0325L90.9435 22.5569L84.2431 18.8291L84 18.6938L83.7569 18.8291L77.0565 22.5569L78.5313 15.0325L78.5848 14.7595L78.3811 14.5701L72.7652 9.34961L80.3771 8.42707L80.6533 8.3936L80.7704 8.1413L84 1.18708Z" fill="#FFD18B" stroke="black"/>
<path d="M57.5 1.15104L60.8744 8.14789L60.9937 8.39547L61.2668 8.42733L69.1786 9.35071L63.355 14.5638L63.1414 14.755L63.1986 15.036L64.7328 22.5737L57.7361 18.8253L57.5 18.6988L57.2639 18.8253L50.2672 22.5737L51.8014 15.036L51.8586 14.755L51.645 14.5638L45.8214 9.35071L53.7332 8.42733L54.0062 8.39547L54.1256 8.14789L57.5 1.15104Z" fill="#FFD18B" stroke="black"/>
<path d="M112.5 1.15104L115.874 8.14789L115.994 8.39547L116.267 8.42733L124.179 9.35071L118.355 14.5638L118.141 14.755L118.199 15.036L119.733 22.5737L112.736 18.8253L112.5 18.6988L112.264 18.8253L105.267 22.5737L106.801 15.036L106.859 14.755L106.645 14.5638L100.821 9.35071L108.733 8.42733L109.006 8.39547L109.126 8.14789L112.5 1.15104Z" fill="#FFD18B" stroke="black"/>
<path d="M139 1.18708L142.23 8.1413L142.347 8.3936L142.623 8.42707L150.235 9.34961L144.619 14.5701L144.415 14.7595L144.469 15.0325L145.943 22.5569L139.243 18.8291L139 18.6938L138.757 18.8291L132.057 22.5569L133.531 15.0325L133.585 14.7595L133.381 14.5701L127.765 9.34961L135.377 8.42707L135.653 8.3936L135.77 8.1413L139 1.18708Z" fill="#FFD18B" stroke="black"/>
</svg>
