<svg width="168" height="168" viewBox="0 0 168 168" fill="none" xmlns="http://www.w3.org/2000/svg">
<g clip-path="url(#clip0_784_768)">
<path d="M102.622 113.069L102.623 113.069C105.274 116.83 107.425 121.405 109.069 126.802C110.712 132.197 111.531 137.46 111.531 142.594C111.531 146.055 111.129 149.245 110.33 152.165C109.533 155.079 108.292 157.712 106.609 160.069C104.946 162.396 102.675 164.218 99.7782 165.529C96.8872 166.837 93.4759 167.5 89.5312 167.5C86.9739 167.5 84.2591 166.534 81.3781 164.542C78.5021 162.553 75.952 159.854 73.732 156.431C71.5063 153 69.7436 149.289 68.4442 145.298C67.1569 141.345 66.8173 137.14 67.4328 132.678C68.0458 128.234 69.7298 124.237 72.4888 120.681L71.7402 120.021C64.4478 127.314 56.1317 131.002 46.7758 131.125C41.1092 131.187 35.4018 129.878 29.6493 127.188C23.8823 124.49 18.8977 121.114 14.6906 117.062C10.476 113.002 7.05512 108.528 4.4247 103.638C1.79622 98.7522 0.5 94.2087 0.5 90C0.5 86.6916 1.15832 83.872 2.4535 81.5226C3.75337 79.1647 5.53001 77.3755 7.78671 76.1418C10.087 74.8844 12.5731 73.9631 15.2473 73.3791C17.9264 72.794 20.8433 72.5 24 72.5C55.0994 72.5 84.7323 87.637 102.622 113.069ZM92.8264 18.6931L92.8271 18.6906C94.1841 13.5707 96.4464 9.25283 99.6068 5.72421C102.73 2.23762 106.64 0.5 111.375 0.5C116.277 0.5 121.321 2.72274 126.514 7.26691C131.704 11.8079 136.009 17.7326 139.422 25.055C142.832 32.3713 144.531 39.6433 144.531 46.875C144.531 53.606 142.958 59.6747 139.817 65.093C136.678 70.5107 132.182 74.887 126.315 78.2216L126.747 79.1209C131.847 77.0931 136.819 76.6845 141.678 77.8762C146.581 79.0788 150.937 81.1736 154.754 84.1595C158.585 87.1558 161.668 90.5952 164.009 94.477C166.353 98.3621 167.5 101.961 167.5 105.281C167.5 107.084 167.109 109.023 166.314 111.103C165.523 113.173 164.348 115.175 162.783 117.107C161.246 119.006 159.124 120.604 156.396 121.892C153.689 123.169 150.654 123.812 147.281 123.812C141.059 123.812 134.524 122.165 127.671 118.847C120.814 115.527 115.422 111.52 111.477 106.835C91.3664 82.69 84.282 50.26 92.4921 19.928L92.8264 18.6931Z" fill="white" stroke="black"/>
<circle cx="56" cy="44" r="19.5" fill="#FFD8E6" stroke="black"/>
<circle cx="113.5" cy="23.5" r="9" fill="white" stroke="black"/>
<circle cx="22.5" cy="94.5" r="9" stroke="black"/>
<path d="M119.311 152.328C121.079 144.622 119.288 128.54 115.43 121.036" stroke="black"/>
</g>
<defs>
<clipPath id="clip0_784_768">
<rect width="168" height="168" fill="white"/>
</clipPath>
</defs>
</svg>
