<svg width="168" height="168" viewBox="0 0 168 168" fill="none" xmlns="http://www.w3.org/2000/svg">
<rect x="32.5" y="40.5" width="23" height="87" fill="white" stroke="black"/>
<path d="M119.543 151.5L127.46 56H130.5H135.037L142.46 151.5H119.543Z" fill="white" stroke="black"/>
<rect x="32.5" y="127.5" width="23" height="8" fill="white" stroke="black"/>
<path d="M32.5 135.5H55.5V147C55.5 149.485 53.4853 151.5 51 151.5H37C34.5147 151.5 32.5 149.485 32.5 147V135.5Z" fill="white" stroke="black"/>
<path d="M43.5 16L55.5 40.5H32.5L43.5 16Z" fill="white" stroke="black"/>
<path d="M48.5 26.5H39" stroke="black"/>
<rect x="72.5" y="16.5" width="31" height="135" fill="#FFEFD7" stroke="black"/>
<path d="M72 24H79.5" stroke="black"/>
<path d="M72 40H79.5" stroke="black"/>
<path d="M72 56H79.5" stroke="black"/>
<path d="M72 72H79.5" stroke="black"/>
<path d="M72 88H79.5" stroke="black"/>
<path d="M72 104H79.5" stroke="black"/>
<path d="M72 120H79.5" stroke="black"/>
<path d="M72 136H79.5" stroke="black"/>
<path d="M72 32H79.5" stroke="black"/>
<path d="M72 48H79.5" stroke="black"/>
<path d="M72 64H79.5" stroke="black"/>
<path d="M72 80H79.5" stroke="black"/>
<path d="M72 96H79.5" stroke="black"/>
<path d="M72 112H79.5" stroke="black"/>
<path d="M72 128H79.5" stroke="black"/>
<path d="M72 144H79.5" stroke="black"/>
<path d="M144.359 32.0736L144.359 32.0751C145.779 35.6554 146.5 39.546 146.5 43.6429C146.5 51.8151 139.565 58.5 131 58.5C122.435 58.5 115.5 51.8151 115.5 43.6429C115.5 39.4351 117.993 35.7344 120.534 32.0003L120.535 32C120.655 31.8224 120.777 31.6444 120.899 31.4658C123.731 27.3146 126.768 22.8627 125.252 16.5176C129.787 16.7594 135.408 19.469 139.114 23.5868C141.366 26.1007 143.141 28.9732 144.359 32.0736Z" fill="white" stroke="black"/>
</svg>
