<svg width="168" height="168" viewBox="0 0 168 168" fill="none" xmlns="http://www.w3.org/2000/svg">
<g clip-path="url(#clip0_784_537)">
<rect x="41.5874" y="0.587413" width="83.8252" height="118.825" fill="#FFEBD9" stroke="black" stroke-width="1.17483"/>
<rect x="0.587413" y="83.5874" width="97.8252" height="83.8252" fill="white" stroke="black" stroke-width="1.17483"/>
<rect x="83.5874" y="83.5874" width="83.8252" height="83.8252" fill="white" stroke="black" stroke-width="1.17483"/>
<path d="M73.9036 58.7414L77.5583 48.445H91.9098L95.5645 58.7414H98.8353L86.4028 24.5647H83.0653L70.6328 58.7414H73.9036ZM78.5595 45.6415L84.6172 28.6198H84.8509L90.9086 45.6415H78.5595Z" fill="black"/>
<path d="M36.2598 142.154H49.076C55.9347 142.154 59.823 138.199 59.823 132.342C59.823 126.651 55.9014 122.996 49.076 122.996H39.3804V110.781H56.2018V107.977H36.2598V142.154ZM39.3804 139.401V125.8H49.076C53.8988 125.8 56.7525 128.603 56.7525 132.275C56.7525 136.23 53.9656 139.401 49.076 139.401H39.3804Z" fill="black"/>
<path d="M114.973 142.154H127.138C134.481 142.154 137.868 138.366 137.868 133.193C137.868 128.003 134.431 124.882 131.11 124.648V124.381C134.164 123.564 136.533 121.194 136.533 116.922C136.533 111.782 133.179 107.977 126.504 107.977H114.973V142.154ZM118.093 139.35V126.184H127.272C131.861 126.184 134.881 129.288 134.881 133.193C134.881 136.73 132.411 139.35 127.138 139.35H118.093ZM118.093 123.414V110.781H126.504C131.177 110.781 133.546 113.301 133.546 116.922C133.546 120.677 130.826 123.414 126.788 123.414H118.093Z" fill="black"/>
</g>
<defs>
<clipPath id="clip0_784_537">
<rect width="168" height="168" fill="white"/>
</clipPath>
</defs>
</svg>
