<svg width="168" height="168" viewBox="0 0 168 168" fill="none" xmlns="http://www.w3.org/2000/svg">
<g clip-path="url(#clip0_784_645)">
<path d="M7 158H103L57.2326 108L7 158Z" fill="#C4E6BE" stroke="black"/>
<rect x="24.5" y="28.5" width="119" height="115" fill="white" stroke="black"/>
<path d="M167.422 166.121C167.461 166.711 167.48 167.179 167.49 167.5L1.50179 167.5C1.50322 167.484 1.50514 167.462 1.5076 167.436C1.51421 167.366 1.52473 167.26 1.54015 167.121C1.57101 166.844 1.6215 166.433 1.69965 165.908C1.85595 164.856 2.12281 163.343 2.56426 161.508C3.44749 157.835 5.0278 152.878 7.81455 147.738C13.3815 137.471 23.7617 126.466 43.076 123.494C61.365 120.681 72.0897 125.391 82.6568 130.031C83.2672 130.3 83.877 130.567 84.4878 130.833C90.0874 133.274 95.7797 135.578 102.623 136.573C109.473 137.568 117.448 137.248 127.631 134.483C137.671 131.756 145.139 132.515 150.702 135.125C156.269 137.736 159.996 142.232 162.493 147.103C164.991 151.977 166.245 157.201 166.873 161.218C167.187 163.224 167.344 164.924 167.422 166.121Z" fill="#DBFFCE" stroke="black"/>
<rect x="34.5973" y="40.5973" width="45.8054" height="29.8054" stroke="black" stroke-width="1.19464"/>
<rect x="34.5973" y="79.5973" width="45.8054" height="29.8054" stroke="black" stroke-width="1.19464"/>
<rect x="89.5973" y="40.5973" width="43.8054" height="29.8054" stroke="black" stroke-width="1.19464"/>
<rect x="89.5973" y="79.5973" width="43.8054" height="29.8054" stroke="black" stroke-width="1.19464"/>
<rect x="8.5" y="17.5" width="152" height="14" fill="white" stroke="black"/>
</g>
<defs>
<clipPath id="clip0_784_645">
<rect width="168" height="168" fill="white"/>
</clipPath>
</defs>
</svg>
