<svg width="168" height="168" viewBox="0 0 168 168" fill="none" xmlns="http://www.w3.org/2000/svg">
<g clip-path="url(#clip0_784_249)">
<rect x="0.5" y="0.5" width="167" height="167" fill="white" stroke="black"/>
<path d="M112 0V153" stroke="black"/>
<path d="M56 0V153" stroke="black"/>
<rect x="8.5" y="8.5" width="39" height="15" stroke="black"/>
<rect x="12.5" y="12.5" width="6" height="7" stroke="black"/>
<rect x="25.5" y="12.5" width="6" height="7" stroke="black"/>
<rect x="37.5" y="12.5" width="6" height="7" stroke="black"/>
<rect x="64.5" y="8.5" width="39" height="15" stroke="black"/>
<rect x="68.5" y="12.5" width="6" height="7" stroke="black"/>
<rect x="81.5" y="12.5" width="5.99999" height="7" stroke="black"/>
<rect x="93.5" y="12.5" width="6" height="7" stroke="black"/>
<rect x="120.5" y="8.5" width="39" height="15" stroke="black"/>
<rect x="124.5" y="12.5" width="6" height="7" stroke="black"/>
<rect x="137.5" y="12.5" width="6" height="7" stroke="black"/>
<rect x="149.5" y="12.5" width="6" height="7" stroke="black"/>
<rect x="8.5" y="56.5" width="39" height="15" stroke="black"/>
<rect x="12.5" y="60.5" width="6" height="7" stroke="black"/>
<rect x="25.5" y="60.5" width="6" height="7" stroke="black"/>
<rect x="37.5" y="60.5" width="6" height="7" stroke="black"/>
<rect x="64.5" y="56.5" width="39" height="15" stroke="black"/>
<rect x="68.5" y="60.5" width="6" height="7" stroke="black"/>
<rect x="81.5" y="60.5" width="5.99999" height="7" stroke="black"/>
<rect x="93.5" y="60.5" width="6" height="7" fill="#FAC2C2" stroke="black"/>
<rect x="120.5" y="56.5" width="39" height="15" stroke="black"/>
<rect x="124.5" y="60.5" width="6" height="7" stroke="black"/>
<rect x="137.5" y="60.5" width="6" height="7" stroke="black"/>
<rect x="149.5" y="60.5" width="6" height="7" stroke="black"/>
<rect x="8.5" y="104.5" width="39" height="15" stroke="black"/>
<rect x="12.5" y="108.5" width="6" height="7" stroke="black"/>
<rect x="25.5" y="108.5" width="6" height="7" stroke="black"/>
<rect x="37.5" y="108.5" width="6" height="7" stroke="black"/>
<rect x="64.5" y="104.5" width="39" height="15" stroke="black"/>
<rect x="68.5" y="108.5" width="6" height="7" stroke="black"/>
<rect x="81.5" y="108.5" width="5.99999" height="7" stroke="black"/>
<rect x="93.5" y="108.5" width="6" height="7" stroke="black"/>
<rect x="120.5" y="104.5" width="39" height="15" stroke="black"/>
<rect x="124.5" y="108.5" width="6" height="7" stroke="black"/>
<rect x="137.5" y="108.5" width="6" height="7" fill="#FAC2C2" stroke="black"/>
<rect x="149.5" y="108.5" width="6" height="7" stroke="black"/>
<rect x="8.5" y="32.5" width="39" height="15" stroke="black"/>
<rect x="12.5" y="36.5" width="6" height="7" stroke="black"/>
<rect x="25.5" y="36.5" width="6" height="7" fill="#FAC2C2" stroke="black"/>
<rect x="37.5" y="36.5" width="6" height="7" stroke="black"/>
<rect x="64.5" y="32.5" width="39" height="15" stroke="black"/>
<rect x="68.5" y="36.5" width="6" height="7" stroke="black"/>
<rect x="81.5" y="36.5" width="5.99999" height="7" stroke="black"/>
<rect x="93.5" y="36.5" width="6" height="7" stroke="black"/>
<rect x="120.5" y="32.5" width="39" height="15" stroke="black"/>
<rect x="124.5" y="36.5" width="6" height="7" stroke="black"/>
<rect x="137.5" y="36.5" width="6" height="7" stroke="black"/>
<rect x="149.5" y="36.5" width="6" height="7" stroke="black"/>
<rect x="8.5" y="80.5" width="39" height="15" stroke="black"/>
<rect x="12.5" y="84.5" width="6" height="7" stroke="black"/>
<rect x="25.5" y="84.5" width="6" height="7" stroke="black"/>
<rect x="37.5" y="84.5" width="6" height="7" stroke="black"/>
<rect x="64.5" y="80.5" width="39" height="15" stroke="black"/>
<rect x="68.5" y="84.5" width="6" height="7" stroke="black"/>
<rect x="81.5" y="84.5" width="5.99999" height="7" stroke="black"/>
<rect x="93.5" y="84.5" width="6" height="7" stroke="black"/>
<rect x="120.5" y="80.5" width="39" height="15" stroke="black"/>
<rect x="124.5" y="84.5" width="6" height="7" stroke="black"/>
<rect x="137.5" y="84.5" width="6" height="7" stroke="black"/>
<rect x="149.5" y="84.5" width="6" height="7" stroke="black"/>
<rect x="8.5" y="128.5" width="39" height="15" stroke="black"/>
<rect x="12.5" y="132.5" width="6" height="7" stroke="black"/>
<rect x="25.5" y="132.5" width="6" height="7" stroke="black"/>
<rect x="37.5" y="132.5" width="6" height="7" stroke="black"/>
<rect x="64.5" y="128.5" width="39" height="15" stroke="black"/>
<rect x="68.5" y="132.5" width="6" height="7" stroke="black"/>
<rect x="81.5" y="132.5" width="5.99999" height="7" stroke="black"/>
<rect x="93.5" y="132.5" width="6" height="7" stroke="black"/>
<rect x="120.5" y="128.5" width="39" height="15" stroke="black"/>
<rect x="124.5" y="132.5" width="6" height="7" stroke="black"/>
<rect x="137.5" y="132.5" width="6" height="7" stroke="black"/>
<rect x="149.5" y="132.5" width="6" height="7" stroke="black"/>
<path d="M167.5 153H1.5" stroke="black"/>
</g>
<defs>
<clipPath id="clip0_784_249">
<rect width="168" height="168" fill="white"/>
</clipPath>
</defs>
</svg>
