<svg width="168" height="168" viewBox="0 0 168 168" fill="none" xmlns="http://www.w3.org/2000/svg">
<path d="M90.0389 2C55.3172 2 27.9053 28.4222 26.0778 63.0444L8.71692 85.8222C6.88946 88.5555 8.71692 93.1111 12.3718 93.1111H26.0778V120.444C26.0778 130.467 34.3014 138.667 44.3524 138.667H53.4897V166H117.451V123.178C139.38 113.156 154 91.2889 154 65.7778C154 30.2444 125.674 2 90.0389 2Z" fill="white" stroke="black"/>
<path d="M140.5 65C140.5 92.895 118.11 115.5 90.5 115.5C62.8904 115.5 40.5 92.895 40.5 65C40.5 37.105 62.8904 14.5 90.5 14.5C118.11 14.5 140.5 37.105 140.5 65Z" fill="#ECFDC7" stroke="black"/>
<path d="M57.5639 77L60.4287 68.8657H71.6785L74.5433 77H77.1072L67.3617 50H64.7455L55 77H57.5639ZM61.2136 66.6509L65.962 53.2036H66.1452L70.8936 66.6509H61.2136Z" fill="black"/>
<path d="M81.6987 77H91.7451C97.1214 77 100.169 73.8755 100.169 69.248C100.169 64.7524 97.0953 61.8652 91.7451 61.8652H84.1449V52.2148H97.3307V50H81.6987V77ZM84.1449 74.8247V64.0801H91.7451C95.5255 64.0801 97.7624 66.2949 97.7624 69.1953C97.7624 72.3198 95.5778 74.8247 91.7451 74.8247H84.1449Z" fill="black"/>
<path d="M106.053 77H115.589C121.345 77 124 74.0073 124 69.9204C124 65.8203 121.305 63.355 118.702 63.1704V62.9595C121.096 62.3135 122.953 60.4414 122.953 57.0664C122.953 53.0059 120.324 50 115.092 50H106.053V77ZM108.499 74.7852V64.3833H115.693C119.291 64.3833 121.658 66.8355 121.658 69.9204C121.658 72.7153 119.722 74.7852 115.589 74.7852H108.499ZM108.499 62.1948V52.2148H115.092C118.754 52.2148 120.612 54.2056 120.612 57.0664C120.612 60.0327 118.48 62.1948 115.314 62.1948H108.499Z" fill="black"/>
</svg>
