<svg width="168" height="168" viewBox="0 0 168 168" fill="none" xmlns="http://www.w3.org/2000/svg">
<g clip-path="url(#clip0_784_630)">
<path d="M31.5 16H152.5V97H16.5V152H136.5" stroke="black" stroke-dasharray="4.4 4.4"/>
<path d="M31.5 16C31.5 24.5604 24.5604 31.5 16 31.5C7.43959 31.5 0.5 24.5604 0.5 16C0.5 7.43959 7.43959 0.5 16 0.5C24.5604 0.5 31.5 7.43959 31.5 16Z" fill="white" stroke="black"/>
<circle cx="152" cy="56" r="15.5" fill="white" stroke="black"/>
<circle cx="152" cy="152" r="15.5" fill="white" stroke="black"/>
<circle cx="87.5" cy="78.5" r="12.5" fill="white"/>
<path d="M84 84.9753C87.5678 84.9753 90.5 82.1069 90.5 78.5802C90.5 75.0535 87.5678 72.1852 84 72.1852C80.4322 72.1852 77.5 75.0535 77.5 78.5802C77.5 82.1069 80.4322 84.9753 84 84.9753ZM84 55.5C96.3479 55.5 107.5 64.7906 107.5 79.1697C107.5 83.7246 105.713 88.7278 102.075 94.194C98.4376 99.6587 92.9687 105.557 85.6541 111.891C84.7015 112.703 83.2686 112.703 82.316 111.891C75.0165 105.557 69.555 99.6589 65.9214 94.1942C62.2866 88.7279 60.5 83.7247 60.5 79.1697C60.5 64.7906 71.6521 55.5 84 55.5Z" fill="#FFC3A9" stroke="black"/>
</g>
<defs>
<clipPath id="clip0_784_630">
<rect width="168" height="168" fill="white"/>
</clipPath>
</defs>
</svg>
