<svg width="168" height="168" viewBox="0 0 168 168" fill="none" xmlns="http://www.w3.org/2000/svg">
<g clip-path="url(#clip0_784_591)">
<rect x="77.5" y="32.5" width="14" height="27" fill="white" stroke="black"/>
<path d="M48.5 92C48.5 72.3939 64.3939 56.5 84 56.5C103.606 56.5 119.5 72.3939 119.5 92V165.5H48.5V92Z" fill="white" stroke="black"/>
<path d="M112 39.5V24L159 0.5V64.5L112 39.5Z" fill="#F8CD9B" stroke="black"/>
<path d="M112 32.5C112 32.5 58.5 32.5 47.5 32.5C36.5 32.5 23.5 40.1 23.5 56.5" stroke="black"/>
<mask id="path-5-inside-1_784_591" fill="white">
<path fill-rule="evenodd" clip-rule="evenodd" d="M50 33C57.4558 33 63.5 26.9558 63.5 19.5C63.5 12.0442 57.4558 6 50 6C42.5442 6 36.5 12.0442 36.5 19.5C36.5 26.9558 42.5442 33 50 33ZM50 25.6364C53.389 25.6364 56.1364 22.889 56.1364 19.5C56.1364 16.111 53.389 13.3636 50 13.3636C46.611 13.3636 43.8636 16.111 43.8636 19.5C43.8636 22.889 46.611 25.6364 50 25.6364Z"/>
</mask>
<path fill-rule="evenodd" clip-rule="evenodd" d="M50 33C57.4558 33 63.5 26.9558 63.5 19.5C63.5 12.0442 57.4558 6 50 6C42.5442 6 36.5 12.0442 36.5 19.5C36.5 26.9558 42.5442 33 50 33ZM50 25.6364C53.389 25.6364 56.1364 22.889 56.1364 19.5C56.1364 16.111 53.389 13.3636 50 13.3636C46.611 13.3636 43.8636 16.111 43.8636 19.5C43.8636 22.889 46.611 25.6364 50 25.6364Z" fill="white"/>
<path d="M62.5 19.5C62.5 26.4036 56.9036 32 50 32V34C58.0081 34 64.5 27.5081 64.5 19.5H62.5ZM50 7C56.9036 7 62.5 12.5964 62.5 19.5H64.5C64.5 11.4919 58.0081 5 50 5V7ZM37.5 19.5C37.5 12.5964 43.0964 7 50 7V5C41.9919 5 35.5 11.4919 35.5 19.5H37.5ZM50 32C43.0964 32 37.5 26.4036 37.5 19.5H35.5C35.5 27.5081 41.9919 34 50 34V32ZM55.1364 19.5C55.1364 22.3367 52.8367 24.6364 50 24.6364V26.6364C53.9413 26.6364 57.1364 23.4413 57.1364 19.5H55.1364ZM50 14.3636C52.8367 14.3636 55.1364 16.6633 55.1364 19.5H57.1364C57.1364 15.5587 53.9413 12.3636 50 12.3636V14.3636ZM44.8636 19.5C44.8636 16.6633 47.1633 14.3636 50 14.3636V12.3636C46.0587 12.3636 42.8636 15.5587 42.8636 19.5H44.8636ZM50 24.6364C47.1633 24.6364 44.8636 22.3367 44.8636 19.5H42.8636C42.8636 23.4413 46.0587 26.6364 50 26.6364V24.6364Z" fill="black" mask="url(#path-5-inside-1_784_591)"/>
<rect x="56.5" y="131.5" width="55" height="10" fill="white" stroke="black"/>
<rect x="56.5" y="147.5" width="55" height="10" fill="white" stroke="black"/>
</g>
<defs>
<clipPath id="clip0_784_591">
<rect width="168" height="168" fill="white"/>
</clipPath>
</defs>
</svg>
