<svg width="168" height="168" viewBox="0 0 168 168" fill="none" xmlns="http://www.w3.org/2000/svg">
<path d="M152.841 40.0153L152.843 40.0172C157.488 44.6509 161.174 50.1594 163.69 56.2261C166.205 62.2929 167.5 68.7983 167.5 75.3684C167.5 81.9386 166.205 88.444 163.69 94.5107C161.174 100.577 157.488 106.086 152.843 110.72L152.842 110.721C143.09 120.498 130.43 125.257 117.56 125.392C117.863 122.789 118.085 120.171 118.085 117.474V117.445C118.085 114.809 118.085 112.116 117.607 109.548C126.494 109.41 135.038 106.241 141.708 99.5531L141.708 99.5526C148.093 93.1319 151.679 84.435 151.679 75.3684C151.679 66.3019 148.093 57.6049 141.708 51.1843L141.707 51.1833C135.303 44.781 126.629 41.1856 117.585 41.1856C108.542 41.1856 99.8683 44.7801 93.4648 51.1807C90.6976 53.8742 88.5584 57.1788 86.967 60.573C86.6855 60.3849 86.4061 60.188 86.1216 59.9875C86.0389 59.9292 85.9558 59.8706 85.872 59.8118C85.427 59.4994 84.9676 59.1843 84.489 58.907V58.5263C84.489 48.7338 79.0051 40.3166 71.04 36.023L70.7254 35.8535L70.4631 36.0962L70.4056 36.1495C69.3208 37.1536 68.1212 38.264 66.6959 39.0579L66.3203 39.2672L66.4709 39.6699C66.6855 40.2436 66.6912 40.9063 66.6912 41.6842C66.6912 45.4365 65.3909 48.7846 63.2661 51.5705L62.9481 51.9874L63.3797 52.2852C64.391 52.9831 65.2199 53.915 65.7964 55.0021C66.3725 56.0885 66.6794 57.298 66.6912 58.5285V69.8947V70.2484L67.0247 70.3662C76.7495 73.8006 85.172 80.1763 91.1298 88.6139C97.0877 97.0516 100.287 107.135 100.287 117.474C100.287 145.072 77.9164 167.5 50.3934 167.5C22.8704 167.5 0.5 145.072 0.5 117.474C0.5 95.7127 14.3868 77.203 33.762 70.3662L34.0956 70.2485V69.8947V58.5285C34.1074 57.298 34.4143 56.0885 34.9904 55.0021C35.5669 53.915 36.3958 52.9831 37.4071 52.2852L37.8387 51.9874L37.5207 51.5705C35.3959 48.7846 34.0956 45.4365 34.0956 41.6842C34.0956 35.5637 37.5128 30.3316 42.4958 27.465L42.8633 27.2536L42.7148 26.8564C42.5002 26.2827 42.4945 25.62 42.4945 24.8421C42.4945 15.8538 49.8309 8.5 58.7923 8.5C66.9336 8.5 73.7015 14.6241 74.8432 22.5554L74.9969 23.6228L75.7123 22.8159L76.3745 22.069C77.103 21.3396 77.9672 20.7609 78.9181 20.3654C79.8733 19.9681 80.8972 19.7636 81.9313 19.7636C82.9653 19.7636 83.9893 19.9681 84.9445 20.3654C85.8997 20.7627 86.7675 21.345 87.4981 22.079L87.4985 22.0794L95.5614 30.1636L95.8112 30.4141L96.1306 30.2619C114.677 21.423 137.543 24.5937 152.841 40.0153ZM63.2633 31.7942L63.5577 32.1879L63.9563 31.9001C66.1675 30.3039 67.6912 27.8035 67.6912 24.8421C67.6912 19.9356 63.6891 15.9211 58.7923 15.9211C53.8955 15.9211 49.8934 19.9356 49.8934 24.8421V25.3421H50.3934C55.6879 25.3421 60.3297 27.8725 63.2633 31.7942ZM45.9224 34.7321L45.628 34.3384L45.2294 34.6262C43.0182 36.2224 41.4945 38.7228 41.4945 41.6842C41.4945 46.5907 45.4966 50.6053 50.3934 50.6053C55.2902 50.6053 59.2923 46.5907 59.2923 41.6842V41.1842H58.7923C53.4978 41.1842 48.856 38.6538 45.9224 34.7321ZM50.3934 151.658C69.2324 151.658 84.489 136.359 84.489 117.474C84.489 98.5883 69.2324 83.2895 50.3934 83.2895C31.5545 83.2895 16.2978 98.5883 16.2978 117.474C16.2978 136.359 31.5545 151.658 50.3934 151.658Z" fill="white" stroke="black"/>
<path d="M75.5 25C75.5 34.1127 68.1127 41.5 59 41.5C49.8873 41.5 42.5 34.1127 42.5 25C42.5 15.8873 49.8873 8.5 59 8.5C68.1127 8.5 75.5 15.8873 75.5 25Z" fill="#FF9D9D" stroke="black"/>
<circle cx="59" cy="25" r="9.5" fill="#FF9D9D" stroke="black"/>
</svg>
