<svg width="168" height="168" viewBox="0 0 168 168" fill="none" xmlns="http://www.w3.org/2000/svg">
<path d="M152.5 89C152.5 98.1127 145.113 105.5 136 105.5C126.887 105.5 119.5 98.1127 119.5 89C119.5 79.8873 126.887 72.5 136 72.5C145.113 72.5 152.5 79.8873 152.5 89Z" fill="#FFF597" stroke="black"/>
<circle cx="32" cy="89" r="16.5" fill="#FFF597" stroke="black"/>
<mask id="path-3-inside-1_784_544" fill="white">
<path fill-rule="evenodd" clip-rule="evenodd" d="M103 88C104.968 103.785 118.434 116 134.752 116C151.071 116 164.536 103.785 166.505 88H103Z"/>
</mask>
<path fill-rule="evenodd" clip-rule="evenodd" d="M103 88C104.968 103.785 118.434 116 134.752 116C151.071 116 164.536 103.785 166.505 88H103Z" fill="white"/>
<path d="M103 88V87H101.868L102.008 88.1237L103 88ZM166.505 88L167.497 88.1237L167.637 87H166.505V88ZM134.752 115C118.945 115 105.899 103.167 103.992 87.8763L102.008 88.1237C104.038 104.403 117.923 117 134.752 117V115ZM165.513 87.8763C163.606 103.167 150.56 115 134.752 115V117C151.582 117 165.467 104.403 167.497 88.1237L165.513 87.8763ZM166.505 87H103V89H166.505V87Z" fill="black" mask="url(#path-3-inside-1_784_544)"/>
<mask id="path-5-inside-2_784_544" fill="white">
<path fill-rule="evenodd" clip-rule="evenodd" d="M1 88C2.96839 103.785 16.434 116 32.7524 116C49.0709 116 62.5365 103.785 64.5048 88H1Z"/>
</mask>
<path fill-rule="evenodd" clip-rule="evenodd" d="M1 88C2.96839 103.785 16.434 116 32.7524 116C49.0709 116 62.5365 103.785 64.5048 88H1Z" fill="white"/>
<path d="M1 88V87H-0.132443L0.0076853 88.1237L1 88ZM64.5048 88L65.4972 88.1237L65.6373 87H64.5048V88ZM32.7524 115C16.9447 115 3.89907 103.167 1.99231 87.8763L0.0076853 88.1237C2.03772 104.403 15.9232 117 32.7524 117V115ZM63.5125 87.8763C61.6058 103.167 48.5602 115 32.7524 115V117C49.5816 117 63.4671 104.403 65.4972 88.1237L63.5125 87.8763ZM64.5048 87H1V89H64.5048V87Z" fill="black" mask="url(#path-5-inside-2_784_544)"/>
<mask id="path-7-inside-3_784_544" fill="white">
<path fill-rule="evenodd" clip-rule="evenodd" d="M104 20C104 29.6758 97.129 37.7469 88 39.5999V128.4C97.129 130.253 104 138.324 104 148C104 159.046 95.0457 168 84 168C72.9543 168 64 159.046 64 148C64 138.324 70.871 130.253 80 128.4V39.5999C70.871 37.7468 64 29.6758 64 20C64 8.9543 72.9543 0 84 0C95.0457 0 104 8.9543 104 20Z"/>
</mask>
<path fill-rule="evenodd" clip-rule="evenodd" d="M104 20C104 29.6758 97.129 37.7469 88 39.5999V128.4C97.129 130.253 104 138.324 104 148C104 159.046 95.0457 168 84 168C72.9543 168 64 159.046 64 148C64 138.324 70.871 130.253 80 128.4V39.5999C70.871 37.7468 64 29.6758 64 20C64 8.9543 72.9543 0 84 0C95.0457 0 104 8.9543 104 20Z" fill="white"/>
<path d="M88 39.5999L87.8011 38.6199L87 38.7825V39.5999H88ZM88 128.4H87V129.217L87.8011 129.38L88 128.4ZM80 128.4L80.1989 129.38L81 129.217V128.4H80ZM80 39.5999H81V38.7825L80.1989 38.6199L80 39.5999ZM88.1989 40.5799C97.7848 38.6341 105 30.1608 105 20H103C103 29.1909 96.4732 36.8596 87.8011 38.6199L88.1989 40.5799ZM89 128.4V39.5999H87V128.4H89ZM87.8011 129.38C96.4732 131.14 103 138.809 103 148H105C105 137.839 97.7848 129.366 88.1989 127.42L87.8011 129.38ZM103 148C103 158.493 94.4934 167 84 167V169C95.598 169 105 159.598 105 148H103ZM84 167C73.5066 167 65 158.493 65 148H63C63 159.598 72.402 169 84 169V167ZM65 148C65 138.809 71.5268 131.14 80.1989 129.38L79.8011 127.42C70.2152 129.366 63 137.839 63 148H65ZM79 39.5999V128.4H81V39.5999H79ZM63 20C63 30.1608 70.2152 38.6341 79.8011 40.5799L80.1989 38.6199C71.5268 36.8596 65 29.1909 65 20H63ZM84 -1C72.402 -1 63 8.40202 63 20H65C65 9.50659 73.5066 1 84 1V-1ZM105 20C105 8.40202 95.598 -1 84 -1V1C94.4934 1 103 9.50659 103 20H105Z" fill="black" mask="url(#path-7-inside-3_784_544)"/>
<path d="M84 11L136 32L84 24L31.5 32L84 11Z" fill="white" stroke="black"/>
<path d="M103.5 88.5L136 32L166 88.5" stroke="black"/>
<path d="M1.5 88.5L32 32L64 88.5" stroke="black"/>
<circle cx="136" cy="32" r="0.5" fill="white" stroke="black"/>
<circle cx="32" cy="32" r="0.5" fill="white" stroke="black"/>
</svg>
