<svg width="168" height="168" viewBox="0 0 168 168" fill="none" xmlns="http://www.w3.org/2000/svg">
<rect x="0.5" y="0.5" width="167" height="111" fill="white" stroke="black"/>
<rect x="8.5" y="8.5" width="151" height="95" fill="#54D780" fill-opacity="0.28" stroke="black"/>
<path d="M33.4287 67H46.9905V65.2103H36.1986V65.0718L41.6105 59.0313C45.2327 55.0256 46.3087 53.2145 46.3087 50.7962C46.3087 47.4723 43.6879 44.8835 40.0338 44.8835C36.3477 44.8835 33.6098 47.483 33.6098 51.0945H35.5168C35.5168 48.5057 37.2852 46.6414 39.9806 46.6414C42.5161 46.6414 44.4337 48.3033 44.4337 50.7962C44.4337 52.8629 43.3364 54.397 40.5558 57.5291L33.4287 65.5405V67Z" fill="black"/>
<path d="M60.9114 62.8665H62.7331V57.0284H68.5712V55.2174H62.7331V49.3793H60.9114V55.2174H55.0733V57.0284H60.9114V62.8665Z" fill="black"/>
<path d="M76.7553 67H90.3171V65.2103H79.5252V65.0718L84.9371 59.0313C88.5592 55.0256 89.6352 53.2145 89.6352 50.7962C89.6352 47.4723 87.0145 44.8835 83.3604 44.8835C79.6743 44.8835 76.9364 47.483 76.9364 51.0945H78.8433C78.8433 48.5057 80.6118 46.6414 83.3071 46.6414C85.8426 46.6414 87.7602 48.3033 87.7602 50.7962C87.7602 52.8629 86.6629 54.397 83.8824 57.5291L76.7553 65.5405V67Z" fill="black"/>
<path d="M99.0817 60.022H111.216V58.2642H99.0817V60.022ZM99.0817 53.9176H111.216V52.1598H99.0817V53.9176Z" fill="black"/>
<path d="M119.56 62.3125H129.744V67H131.641V62.3125H134.538V60.5228H131.641V45.1818H129.286L119.56 60.6932V62.3125ZM129.744 60.5228H121.786V60.3843L129.595 47.8985H129.744V60.5228Z" fill="black"/>
<path d="M8 166.5L58.5 80L17 166.5H8Z" fill="white" stroke="black"/>
</svg>
