<svg width="168" height="168" viewBox="0 0 168 168" fill="none" xmlns="http://www.w3.org/2000/svg">
<g clip-path="url(#clip0_784_842)">
<path d="M161.5 82.5C161.5 125.581 126.799 160.5 84 160.5C41.2009 160.5 6.5 125.581 6.5 82.5C6.5 39.4188 41.2009 4.5 84 4.5C126.799 4.5 161.5 39.4188 161.5 82.5Z" fill="white" stroke="black"/>
<path d="M3.12501 42.7678C9.46852 30.0947 18.6843 19.0784 30.0381 10.5966" stroke="black"/>
<path d="M147.5 84.5C147.5 97.7295 143.302 110.612 135.521 121.264C127.741 131.916 116.784 139.78 104.255 143.706" stroke="black"/>
<path d="M117.342 61.6977L117.342 61.6981C121.39 69.4632 119.764 78.2511 112.265 87.9127L112.264 87.914C106.358 95.5718 97.8799 103.21 85.5812 112.156L85.5804 112.157C85.2783 112.377 84.9018 112.5 84.5106 112.5C84.1194 112.5 83.7429 112.377 83.4408 112.157L83.4401 112.156C71.1211 103.19 62.6631 95.4893 56.7562 87.9122C49.235 78.2507 47.6089 69.463 51.6567 61.6981L51.6569 61.6977C54.5122 56.2088 62.8054 51.6534 72.586 54.2795C77.2445 55.54 81.3024 58.2415 84.101 61.9352L84.4995 62.4613L84.898 61.9352C87.6967 58.2414 91.7547 55.5399 96.4134 54.2794L96.4146 54.2791C106.17 51.6129 114.486 56.2072 117.342 61.6977Z" fill="#FCC8C5" stroke="black"/>
</g>
<defs>
<clipPath id="clip0_784_842">
<rect width="168" height="168" fill="white"/>
</clipPath>
</defs>
</svg>
