<svg width="168" height="168" viewBox="0 0 168 168" fill="none" xmlns="http://www.w3.org/2000/svg">
<path d="M84 144L84 168" stroke="black"/>
<path d="M30.4697 120L9.25652 141.213" stroke="black"/>
<path d="M138 120L159.213 141.213" stroke="black"/>
<circle cx="84" cy="66" r="65.5" fill="white" stroke="black"/>
<path d="M161.5 66C161.5 69.9528 159.419 73.7746 155.534 77.3074C151.649 80.8404 145.999 84.045 138.975 86.7465C124.93 92.1483 105.494 95.5 84 95.5C62.5062 95.5 43.0698 92.1483 29.0252 86.7465C22.0012 84.045 16.3512 80.8404 12.466 77.3074C8.58092 73.7746 6.5 69.9528 6.5 66C6.5 62.0472 8.58092 58.2254 12.466 54.6926C16.3512 51.1596 22.0012 47.955 29.0252 45.2535C43.0698 39.8517 62.5062 36.5 84 36.5C105.494 36.5 124.93 39.8517 138.975 45.2535C145.999 47.955 151.649 51.1596 155.534 54.6926C159.419 58.2254 161.5 62.0472 161.5 66Z" fill="white" stroke="black"/>
<circle cx="84" cy="66" r="19" fill="#C5BCFF" stroke="black"/>
</svg>
