<svg width="168" height="168" viewBox="0 0 168 168" fill="none" xmlns="http://www.w3.org/2000/svg">
<g clip-path="url(#clip0_784_847)">
<circle cx="84" cy="84" r="83.5" fill="white" stroke="black"/>
<mask id="mask0_784_847" style="mask-type:alpha" maskUnits="userSpaceOnUse" x="0" y="0" width="168" height="168">
<circle cx="84" cy="84" r="83.5" fill="#C7D3FF"/>
<circle cx="84" cy="84" r="83.5" fill="#C7D3FF"/>
<circle cx="84" cy="84" r="83.5" stroke="black"/>
</mask>
<g mask="url(#mask0_784_847)">
<rect x="84" y="-42" width="108.889" height="261.333" fill="#C7D3FF"/>
</g>
<mask id="path-4-inside-1_784_847" fill="white">
<path fill-rule="evenodd" clip-rule="evenodd" d="M80.2334 167.917C109.422 151.337 129.111 119.967 129.111 83.9994C129.111 48.0322 109.423 16.6635 80.2355 0.0828491C81.4835 0.0278096 82.7385 0 84 0C130.392 0 168 37.6081 168 84C168 130.392 130.392 168 84 168C82.7378 168 81.4821 167.972 80.2334 167.917Z"/>
</mask>
<path fill-rule="evenodd" clip-rule="evenodd" d="M80.2334 167.917C109.422 151.337 129.111 119.967 129.111 83.9994C129.111 48.0322 109.423 16.6635 80.2355 0.0828491C81.4835 0.0278096 82.7385 0 84 0C130.392 0 168 37.6081 168 84C168 130.392 130.392 168 84 168C82.7378 168 81.4821 167.972 80.2334 167.917Z" fill="white"/>
<path d="M80.2334 167.917L79.7395 167.048L76.7196 168.763L80.1893 168.916L80.2334 167.917ZM80.2355 0.0828491L80.1914 -0.91618L76.7217 -0.763154L79.7416 0.952344L80.2355 0.0828491ZM128.111 83.9994C128.111 119.593 108.628 150.638 79.7395 167.048L80.7273 168.787C110.216 152.036 130.111 120.342 130.111 83.9994H128.111ZM79.7416 0.952344C108.629 17.3626 128.111 48.4064 128.111 83.9994H130.111C130.111 47.658 110.217 15.9645 80.7294 -0.786646L79.7416 0.952344ZM80.2796 1.08188C81.5129 1.02749 82.7532 1 84 1V-1C82.7238 -1 81.4541 -0.971866 80.1914 -0.91618L80.2796 1.08188ZM84 1C129.84 1 167 38.1604 167 84H169C169 37.0558 130.944 -1 84 -1V1ZM167 84C167 129.84 129.84 167 84 167V169C130.944 169 169 130.944 169 84H167ZM84 167C82.7525 167 81.5115 166.972 80.2775 166.918L80.1893 168.916C81.4526 168.972 82.7231 169 84 169V167Z" fill="black" mask="url(#path-4-inside-1_784_847)"/>
<mask id="path-6-inside-2_784_847" fill="white">
<path fill-rule="evenodd" clip-rule="evenodd" d="M87.7666 167.917C58.5781 151.337 38.8888 119.967 38.8888 83.9994C38.8888 48.0322 58.5772 16.6635 87.7645 0.0828493C86.5165 0.0278096 85.2615 0 84 0C37.608 0 -3.8147e-05 37.6081 -3.8147e-05 84C-3.8147e-05 130.392 37.608 168 84 168C85.2622 168 86.5179 167.972 87.7666 167.917Z"/>
</mask>
<path fill-rule="evenodd" clip-rule="evenodd" d="M87.7666 167.917C58.5781 151.337 38.8888 119.967 38.8888 83.9994C38.8888 48.0322 58.5772 16.6635 87.7645 0.0828493C86.5165 0.0278096 85.2615 0 84 0C37.608 0 -3.8147e-05 37.6081 -3.8147e-05 84C-3.8147e-05 130.392 37.608 168 84 168C85.2622 168 86.5179 167.972 87.7666 167.917Z" fill="white"/>
<path d="M87.7666 167.917L88.2605 167.048L91.2804 168.763L87.8107 168.916L87.7666 167.917ZM87.7645 0.0828493L87.8086 -0.91618L91.2783 -0.763153L88.2584 0.952344L87.7645 0.0828493ZM39.8888 83.9994C39.8888 119.593 59.3721 150.638 88.2605 167.048L87.2727 168.787C57.7842 152.036 37.8888 120.342 37.8888 83.9994H39.8888ZM88.2584 0.952344C59.3712 17.3626 39.8888 48.4064 39.8888 83.9994H37.8888C37.8888 47.658 57.7832 15.9645 87.2706 -0.786646L88.2584 0.952344ZM87.7204 1.08188C86.4871 1.02749 85.2468 1 84 1V-1C85.2762 -1 86.5459 -0.971866 87.8086 -0.91618L87.7204 1.08188ZM84 1C38.1603 1 0.999962 38.1604 0.999962 84H-1.00004C-1.00004 37.0558 37.0558 -1 84 -1V1ZM0.999962 84C0.999962 129.84 38.1603 167 84 167V169C37.0558 169 -1.00004 130.944 -1.00004 84H0.999962ZM84 167C85.2475 167 86.4885 166.972 87.7225 166.918L87.8107 168.916C86.5474 168.972 85.2769 169 84 169V167Z" fill="black" mask="url(#path-6-inside-2_784_847)"/>
<path d="M0 84L168 84" stroke="black"/>
<path d="M84 0V168" stroke="black"/>
</g>
<defs>
<clipPath id="clip0_784_847">
<rect width="168" height="168" fill="white"/>
</clipPath>
</defs>
</svg>
