<svg width="168" height="168" viewBox="0 0 168 168" fill="none" xmlns="http://www.w3.org/2000/svg">
<circle cx="84" cy="84" r="75.3667" fill="#F9C4F4" stroke="black" stroke-width="1.26667"/>
<circle cx="84" cy="85.2667" r="56.3667" fill="#F9C4F4" stroke="black" stroke-width="1.26667"/>
<path d="M104.078 112.464C100.34 115.101 96.1195 116.976 91.657 117.981C87.1945 118.987 82.5777 119.104 78.0701 118.325C73.5625 117.546 69.2524 115.887 65.3859 113.443C61.5194 110.998 58.1722 107.816 55.5355 104.078C52.8988 100.34 51.0241 96.1196 50.0186 91.6571C49.013 87.1946 48.8963 82.5778 49.675 78.0702C50.4537 73.5626 52.1126 69.2525 54.557 65.386C57.0015 61.5195 60.1835 58.1723 63.9215 55.5356C67.6595 52.8989 71.8802 51.0242 76.3427 50.0187C80.8052 49.0131 85.4221 48.8964 89.9297 49.6751C94.4373 50.4538 98.7474 52.1127 102.614 54.5572C106.48 57.0016 109.828 60.1836 112.464 63.9216C115.101 67.6596 116.976 71.8804 117.981 76.3428C118.987 80.8053 119.103 85.4222 118.325 89.9298C117.546 94.4374 115.887 98.7475 113.443 102.614C110.998 106.48 107.816 109.828 104.078 112.464L104.078 112.464Z" stroke="black" stroke-width="1.26667"/>
<path d="M90.7514 93.6868C88.2605 95.3649 85.1812 96.0526 82.164 95.595C79.1349 95.1356 76.4238 93.561 74.5988 91.2217C72.7753 88.8842 71.9767 85.9647 72.3601 83.0814C72.7437 80.1973 74.2827 77.5576 76.6683 75.7297C79.0555 73.9006 82.0988 73.0325 85.1516 73.321C88.2041 73.6094 91.0082 75.0294 92.974 77.2641C94.9382 79.497 95.9129 82.3681 95.7054 85.2676C95.6057 86.6614 94.9592 88.2637 94.0131 89.7968C93.0795 91.3097 91.8879 92.7004 90.7514 93.6868Z" stroke="black" stroke-width="1.26667"/>
</svg>
