<svg width="168" height="168" viewBox="0 0 168 168" fill="none" xmlns="http://www.w3.org/2000/svg">
<path d="M83 34L83 136" stroke="black"/>
<rect x="16.5" y="136.5" width="135" height="23" fill="white" stroke="black"/>
<rect x="71.5" y="24.5" width="23" height="16" rx="4.5" fill="#FCC8C5" stroke="black"/>
<mask id="path-4-inside-1_784_637" fill="white">
<path fill-rule="evenodd" clip-rule="evenodd" d="M151.819 121C151.939 119.53 152 118.045 152 116.548C152 83.1082 121.555 56 84 56C46.4446 56 16 83.1082 16 116.548C16 118.045 16.061 119.53 16.181 121H151.819Z"/>
</mask>
<path fill-rule="evenodd" clip-rule="evenodd" d="M151.819 121C151.939 119.53 152 118.045 152 116.548C152 83.1082 121.555 56 84 56C46.4446 56 16 83.1082 16 116.548C16 118.045 16.061 119.53 16.181 121H151.819Z" fill="white"/>
<path d="M151.819 121V122H152.741L152.816 121.081L151.819 121ZM16.181 121L15.1843 121.081L15.2593 122H16.181V121ZM151 116.548C151 118.018 150.94 119.476 150.822 120.919L152.816 121.081C152.938 119.584 153 118.072 153 116.548H151ZM84 57C121.115 57 151 83.7665 151 116.548H153C153 82.45 121.995 55 84 55V57ZM17 116.548C17 83.7665 46.8846 57 84 57V55C46.0046 55 15 82.45 15 116.548H17ZM17.1777 120.919C17.0599 119.476 17 118.018 17 116.548H15C15 118.072 15.0622 119.584 15.1843 121.081L17.1777 120.919ZM16.181 122H151.819V120H16.181V122Z" fill="black" mask="url(#path-4-inside-1_784_637)"/>
<path d="M118 73C123.333 77.5 130.4 83.6 132 86" stroke="black"/>
</svg>
