<svg width="168" height="168" viewBox="0 0 168 168" fill="none" xmlns="http://www.w3.org/2000/svg">
<rect x="8.5" y="50.5" width="151" height="117" fill="white" stroke="black"/>
<rect x="0.5" y="41.5" width="167" height="15" fill="white" stroke="black"/>
<rect x="0.5" y="152.5" width="167" height="15" fill="white" stroke="black"/>
<rect x="24.5" y="72.5" width="119" height="63" fill="white" stroke="black"/>
<path d="M57.158 85.3761C56.8215 85.1294 56.4172 84.9978 56.003 85C55.5889 85.0022 55.186 85.1381 54.852 85.3883C51.184 88.1038 40 97.3476 40 109.092C40 115.727 43.896 121.44 49.468 124C48.5147 122.629 48.0017 120.99 48 119.309C47.966 112.727 55.116 105.224 55.42 105.006C55.5888 104.882 55.7913 104.816 55.999 104.816C56.2067 104.816 56.4092 104.882 56.578 105.006C56.882 105.224 64 111.082 64 119.313C64 121.058 63.45 122.67 62.534 124C68.104 121.44 72 115.729 72 109.103C72 97.1269 60.836 88.0425 57.158 85.3761Z" fill="#B0B8EA"/>
<path d="M114 85C123.334 97.18 128 105.846 128 111C128 112.839 127.638 114.659 126.934 116.358C126.231 118.056 125.2 119.599 123.899 120.899C122.599 122.2 121.056 123.231 119.358 123.934C117.659 124.638 115.839 125 114 125C112.161 125 110.341 124.638 108.642 123.934C106.944 123.231 105.401 122.2 104.101 120.899C102.8 119.599 101.769 118.056 101.066 116.358C100.362 114.659 100 112.839 100 111C100 105.846 104.666 97.18 114 85Z" fill="#DADADA"/>
</svg>
