<svg width="168" height="168" viewBox="0 0 168 168" fill="none" xmlns="http://www.w3.org/2000/svg">
<g clip-path="url(#clip0_784_759)">
<path d="M144.5 124C144.5 134.542 137.87 144.155 127.009 151.157C116.153 158.155 101.125 162.5 84.5 162.5C67.875 162.5 52.8472 158.155 41.9909 151.157C31.1295 144.155 24.5 134.542 24.5 124C24.5 123.023 24.8565 122.33 25.5326 121.813C26.2377 121.275 27.3256 120.905 28.8227 120.698C31.8154 120.286 36.1868 120.559 41.6689 121.122C43.9531 121.357 46.4231 121.641 49.0544 121.944C59.0042 123.089 71.2606 124.5 84.5 124.5C97.734 124.5 109.984 123.325 119.934 122.371C122.566 122.118 125.037 121.881 127.323 121.686C132.803 121.216 137.185 120.988 140.189 121.333C141.694 121.506 142.793 121.817 143.502 122.269C144.179 122.699 144.5 123.25 144.5 124Z" fill="white" stroke="black"/>
<path d="M167.5 92L144.5 112.5H24L0.5 92L13.5 57.5L84.5 23L153.5 57.5L167.5 92Z" fill="white" stroke="black"/>
<rect x="24.5" y="112.5" width="120" height="13" fill="white" stroke="black"/>
<path d="M154.5 58L124 88" stroke="black"/>
<path d="M13 58L43.5 88" stroke="black"/>
<circle cx="84.5" cy="79.5" r="21" stroke="black"/>
<path d="M84.5 65.618L87.9535 76.2467L88.0657 76.5922H88.429L99.6047 76.5922L90.5634 83.1611L90.2695 83.3746L90.3817 83.7201L93.8352 94.3488L84.7939 87.7799L84.5 87.5664L84.2061 87.7799L75.1648 94.3488L78.6183 83.7201L78.7305 83.3746L78.4366 83.1611L69.3954 76.5922L80.571 76.5922H80.9343L81.0465 76.2467L84.5 65.618Z" fill="#FFEFD7" stroke="black"/>
</g>
<defs>
<clipPath id="clip0_784_759">
<rect width="168" height="168" fill="white"/>
</clipPath>
</defs>
</svg>
