<svg width="168" height="168" viewBox="0 0 168 168" fill="none" xmlns="http://www.w3.org/2000/svg">
<g clip-path="url(#clip0_784_414)">
<circle cx="84" cy="84" r="83.3824" fill="#E2FFC6" stroke="black" stroke-width="1.23529"/>
<path d="M151.5 84C151.5 121.279 121.279 151.5 84 151.5C46.7208 151.5 16.5 121.279 16.5 84C16.5 46.7208 46.7208 16.5 84 16.5C121.279 16.5 151.5 46.7208 151.5 84Z" fill="white" stroke="black"/>
<mask id="path-3-inside-1_784_414" fill="white">
<path fill-rule="evenodd" clip-rule="evenodd" d="M80.9512 151.933C104.58 138.511 120.519 113.116 120.519 83.9995C120.519 54.8832 104.581 29.4895 80.9527 16.0671C81.9629 16.0225 82.9788 16 84 16C121.555 16 152 46.4446 152 84C152 121.555 121.555 152 84 152C82.9783 152 81.9619 151.977 80.9512 151.933Z"/>
</mask>
<path fill-rule="evenodd" clip-rule="evenodd" d="M80.9512 151.933C104.58 138.511 120.519 113.116 120.519 83.9995C120.519 54.8832 104.581 29.4895 80.9527 16.0671C81.9629 16.0225 82.9788 16 84 16C121.555 16 152 46.4446 152 84C152 121.555 121.555 152 84 152C82.9783 152 81.9619 151.977 80.9512 151.933Z" fill="white"/>
<path d="M80.9512 151.933L80.4573 151.063L77.4374 152.779L80.9071 152.932L80.9512 151.933ZM80.9527 16.0671L80.9086 15.068L77.4389 15.2211L80.4587 16.9366L80.9527 16.0671ZM119.519 83.9995C119.519 112.742 103.786 137.812 80.4573 151.063L81.4451 152.802C105.374 139.21 121.519 113.491 121.519 83.9995H119.519ZM80.4587 16.9366C103.787 30.1886 119.519 55.2575 119.519 83.9995H121.519C121.519 54.509 105.375 28.7905 81.4466 15.1976L80.4587 16.9366ZM80.9967 17.0661C81.9923 17.0222 82.9935 17 84 17V15C82.9641 15 81.9335 15.0228 80.9086 15.068L80.9967 17.0661ZM84 17C121.003 17 151 46.9969 151 84H153C153 45.8924 122.108 15 84 15V17ZM151 84C151 121.003 121.003 151 84 151V153C122.108 153 153 122.108 153 84H151ZM84 151C82.993 151 81.9913 150.978 80.9953 150.934L80.9071 152.932C81.9325 152.977 82.9636 153 84 153V151Z" fill="black" mask="url(#path-3-inside-1_784_414)"/>
<mask id="path-5-inside-2_784_414" fill="white">
<path fill-rule="evenodd" clip-rule="evenodd" d="M87.0488 151.933C63.4201 138.511 47.4812 113.116 47.4812 83.9995C47.4812 54.8832 63.4195 29.4895 87.0473 16.0671C86.037 16.0225 85.021 16 83.9998 16C46.4444 16 15.9998 46.4446 15.9998 84C15.9998 121.555 46.4444 152 83.9998 152C85.0215 152 86.038 151.977 87.0488 151.933Z"/>
</mask>
<path fill-rule="evenodd" clip-rule="evenodd" d="M87.0488 151.933C63.4201 138.511 47.4812 113.116 47.4812 83.9995C47.4812 54.8832 63.4195 29.4895 87.0473 16.0671C86.037 16.0225 85.021 16 83.9998 16C46.4444 16 15.9998 46.4446 15.9998 84C15.9998 121.555 46.4444 152 83.9998 152C85.0215 152 86.038 151.977 87.0488 151.933Z" fill="white"/>
<path d="M87.0488 151.933L87.5427 151.063L90.5626 152.779L87.0929 152.932L87.0488 151.933ZM87.0473 16.0671L87.0914 15.068L90.5611 15.2211L87.5413 16.9366L87.0473 16.0671ZM48.4812 83.9995C48.4812 112.742 64.2141 137.812 87.5427 151.063L86.5549 152.802C62.6262 139.21 46.4812 113.491 46.4812 83.9995H48.4812ZM87.5413 16.9366C64.2134 30.1886 48.4812 55.2575 48.4812 83.9995H46.4812C46.4812 54.509 62.6255 28.7905 86.5534 15.1976L87.5413 16.9366ZM87.0033 17.0661C86.0076 17.0222 85.0063 17 83.9998 17V15C85.0357 15 86.0664 15.0228 87.0914 15.068L87.0033 17.0661ZM83.9998 17C46.9967 17 16.9998 46.9969 16.9998 84H14.9998C14.9998 45.8924 45.8921 15 83.9998 15V17ZM16.9998 84C16.9998 121.003 46.9967 151 83.9998 151V153C45.8921 153 14.9998 122.108 14.9998 84H16.9998ZM83.9998 151C85.0068 151 86.0086 150.978 87.0047 150.934L87.0929 152.932C86.0675 152.977 85.0362 153 83.9998 153V151Z" fill="black" mask="url(#path-5-inside-2_784_414)"/>
<path d="M17.3076 84H152" stroke="black"/>
<path d="M84 16V152" stroke="black"/>
</g>
<defs>
<clipPath id="clip0_784_414">
<rect width="168" height="168" fill="white"/>
</clipPath>
</defs>
</svg>
