<svg width="168" height="168" viewBox="0 0 168 168" fill="none" xmlns="http://www.w3.org/2000/svg">
<g clip-path="url(#clip0_784_344)">
<path d="M84.5 22.5V145.5" stroke="black"/>
<path d="M146 84L23 84" stroke="black"/>
<path d="M41.0127 40.5129L127.987 127.487" stroke="black"/>
<path d="M127.987 40.5129L41.0132 127.487" stroke="black"/>
<path d="M106.539 26.585L62.4598 141.415" stroke="black"/>
<path d="M62.46 26.585L106.539 141.415" stroke="black"/>
<path d="M27.4775 60.9611L141.521 107.038" stroke="black"/>
<path d="M27.8887 108.03L141.111 59.9702" stroke="black"/>
<mask id="path-9-inside-1_784_344" fill="white">
<path fill-rule="evenodd" clip-rule="evenodd" d="M84 168C130.392 168 168 130.392 168 84C168 37.6081 130.392 0 84 0C37.6081 0 0 37.6081 0 84C0 130.392 37.6081 168 84 168ZM84 144C117.137 144 144 117.137 144 84C144 50.8629 117.137 24 84 24C50.8629 24 24 50.8629 24 84C24 117.137 50.8629 144 84 144Z"/>
</mask>
<path fill-rule="evenodd" clip-rule="evenodd" d="M84 168C130.392 168 168 130.392 168 84C168 37.6081 130.392 0 84 0C37.6081 0 0 37.6081 0 84C0 130.392 37.6081 168 84 168ZM84 144C117.137 144 144 117.137 144 84C144 50.8629 117.137 24 84 24C50.8629 24 24 50.8629 24 84C24 117.137 50.8629 144 84 144Z" fill="white"/>
<path d="M167 84C167 129.84 129.84 167 84 167V169C130.944 169 169 130.944 169 84H167ZM84 1C129.84 1 167 38.1604 167 84H169C169 37.0558 130.944 -1 84 -1V1ZM1 84C1 38.1604 38.1604 1 84 1V-1C37.0558 -1 -1 37.0558 -1 84H1ZM84 167C38.1604 167 1 129.84 1 84H-1C-1 130.944 37.0558 169 84 169V167ZM143 84C143 116.585 116.585 143 84 143V145C117.689 145 145 117.689 145 84H143ZM84 25C116.585 25 143 51.4152 143 84H145C145 50.3106 117.689 23 84 23V25ZM25 84C25 51.4152 51.4152 25 84 25V23C50.3106 23 23 50.3106 23 84H25ZM84 143C51.4152 143 25 116.585 25 84H23C23 117.689 50.3106 145 84 145V143Z" fill="black" mask="url(#path-9-inside-1_784_344)"/>
<path d="M103.5 84C103.5 94.7696 94.7696 103.5 84 103.5C73.2304 103.5 64.5 94.7696 64.5 84C64.5 73.2304 73.2304 64.5 84 64.5C94.7696 64.5 103.5 73.2304 103.5 84Z" fill="#D6D3D3" stroke="black"/>
<circle cx="84" cy="84" r="75.5" stroke="black"/>
</g>
<defs>
<clipPath id="clip0_784_344">
<rect width="168" height="168" fill="white"/>
</clipPath>
</defs>
</svg>
