<svg width="168" height="168" viewBox="0 0 168 168" fill="none" xmlns="http://www.w3.org/2000/svg">
<path d="M136.5 119.5H42.5L24 24H152.5L136.5 119.5Z" fill="white"/>
<path d="M0 0.5H18L24 24M24 24L42.5 119.5H136.5L152.5 24H24Z" stroke="black"/>
<path d="M144.373 71.6708C144.403 71.6909 144.43 71.7098 144.456 71.7275L136.576 119.5H41.7482L33.2341 72.7405C33.3099 72.7995 33.3897 72.8611 33.4732 72.9251C34.315 73.5703 35.5454 74.4634 37.1058 75.4603C40.2251 77.4532 44.6715 79.8663 49.9746 81.5393C60.5963 84.8902 74.6653 85.2689 88.3283 73.3771C101.677 61.759 115.748 61.3882 126.51 63.9241C131.897 65.1933 136.451 67.191 139.659 68.8725C141.262 69.7128 142.527 70.4732 143.39 71.0223C143.821 71.2968 144.152 71.5185 144.373 71.6708Z" fill="#E1F4BF" stroke="black"/>
<path d="M155.5 148C155.5 158.77 146.77 167.5 136 167.5C125.23 167.5 116.5 158.77 116.5 148C116.5 137.23 125.23 128.5 136 128.5C146.77 128.5 155.5 137.23 155.5 148Z" fill="white" stroke="black"/>
<path d="M63.5 148C63.5 158.77 54.7696 167.5 44 167.5C33.2304 167.5 24.5 158.77 24.5 148C24.5 137.23 33.2304 128.5 44 128.5C54.7696 128.5 63.5 137.23 63.5 148Z" fill="white" stroke="black"/>
<path d="M37 96H140" stroke="black"/>
<path d="M29 48H148" stroke="black"/>
<path d="M56 24V119" stroke="black"/>
<path d="M88 24V119" stroke="black"/>
<path d="M120 24V119" stroke="black"/>
</svg>
