<svg width="168" height="168" viewBox="0 0 168 168" fill="none" xmlns="http://www.w3.org/2000/svg">
<g clip-path="url(#clip0_784_0)">
<path d="M88.8459 109.846H126L136.5 115.5L153.461 167.192H99.3459L87.2305 142.154L88.8459 109.846Z" fill="#E1E1D7" stroke="black"/>
<path d="M103.885 106.302C103.891 105.081 104.42 103.959 104.948 103.251C109.031 102.697 115.835 102.152 123.215 102.291C130.725 102.433 138.79 103.281 145.187 105.524C157.838 109.959 165.267 116.198 167.5 118.843V167.5H129.256C129.374 165.83 129.376 163.337 129.048 160.666C128.682 157.69 127.899 154.446 126.37 151.866C125.428 150.276 124.195 148.658 122.883 146.968C122.742 146.786 122.6 146.604 122.458 146.421C121.266 144.889 120.02 143.288 118.843 141.561C116.211 137.7 113.949 133.247 113.497 127.696C113.036 122.038 112.571 118.557 111.555 116.064C110.519 113.521 108.923 112.034 106.344 110.308C104.438 109.033 103.878 107.577 103.885 106.302Z" fill="white" stroke="black"/>
<path d="M92.7834 121.365V121.572L92.9298 121.718C92.9861 121.774 93.1356 121.96 93.4006 122.349C93.6575 122.725 94.0061 123.268 94.4574 124.012C95.3597 125.5 96.6663 127.786 98.4617 131.152C100.759 135.458 103.432 137.547 105.665 138.671C106.775 139.23 107.765 139.545 108.513 139.774C108.557 139.788 108.601 139.801 108.643 139.814C108.962 139.912 109.217 139.99 109.422 140.067C109.669 140.161 109.754 140.223 109.773 140.244C109.986 140.476 110.105 140.829 110.156 141.483C110.188 141.898 110.191 142.373 110.194 142.949C110.196 143.296 110.198 143.68 110.207 144.109C110.254 146.353 110.49 149.553 111.912 154.102C113.969 160.683 114.278 165.527 114.175 167.5H0.5V79.369C1.72902 77.4655 5.00013 74.2008 9.71809 70.5598C14.517 66.8562 20.7625 62.8019 27.7518 59.4475C41.6109 52.796 52.7089 52.2005 59.4252 52.1925C61.0834 53.2187 63.5093 54.9848 65.533 57.0306C66.569 58.078 67.4878 59.187 68.1451 60.2963C68.8042 61.4089 69.1816 62.4901 69.1816 63.4917C69.1816 66.3897 70.0479 69.6911 71.3329 72.5464C72.6118 75.3879 74.346 77.8774 76.1476 79.0783C76.4376 79.2716 76.6869 79.6343 76.8781 80.2208C77.0681 80.8039 77.1829 81.5537 77.2431 82.4448C77.3457 83.9608 77.2865 85.797 77.223 87.7676C77.2117 88.1183 77.2002 88.4732 77.1896 88.8313C77.1193 91.1829 77.0825 93.6581 77.351 95.8685C77.6181 98.0673 78.196 100.089 79.423 101.469C81.3081 103.59 84.0303 104.89 86.6221 105.662C88.9551 106.357 91.2267 106.636 92.7834 106.686V121.365Z" fill="white" stroke="black"/>
<mask id="path-4-inside-1_784_0" fill="white">
<path fill-rule="evenodd" clip-rule="evenodd" d="M36.3456 71.0769C31.4387 71.0769 27.4609 75.0547 27.4609 79.9615V88.6844C27.4609 89.7252 28.3866 90.4613 29.4274 90.4613H43.2637C44.3045 90.4613 45.2302 89.7252 45.2302 88.6844V79.9615C45.2302 75.0547 41.2524 71.0769 36.3456 71.0769Z"/>
</mask>
<path fill-rule="evenodd" clip-rule="evenodd" d="M36.3456 71.0769C31.4387 71.0769 27.4609 75.0547 27.4609 79.9615V88.6844C27.4609 89.7252 28.3866 90.4613 29.4274 90.4613H43.2637C44.3045 90.4613 45.2302 89.7252 45.2302 88.6844V79.9615C45.2302 75.0547 41.2524 71.0769 36.3456 71.0769Z" fill="white"/>
<path d="M28.4609 79.9615C28.4609 75.607 31.991 72.0769 36.3456 72.0769V70.0769C30.8864 70.0769 26.4609 74.5024 26.4609 79.9615H28.4609ZM28.4609 88.6844V79.9615H26.4609V88.6844H28.4609ZM29.4274 91.4613H43.2637V89.4613H29.4274V91.4613ZM44.2302 79.9615V88.6844H46.2302V79.9615H44.2302ZM36.3456 72.0769C40.7001 72.0769 44.2302 75.607 44.2302 79.9615H46.2302C46.2302 74.5024 41.8047 70.0769 36.3456 70.0769V72.0769ZM43.2637 91.4613C44.7202 91.4613 46.2302 90.4048 46.2302 88.6844H44.2302C44.2302 89.0456 43.8888 89.4613 43.2637 89.4613V91.4613ZM26.4609 88.6844C26.4609 90.4048 27.9709 91.4613 29.4274 91.4613V89.4613C28.8024 89.4613 28.4609 89.0456 28.4609 88.6844H26.4609Z" fill="black" mask="url(#path-4-inside-1_784_0)"/>
<mask id="path-6-inside-2_784_0" fill="white">
<path fill-rule="evenodd" clip-rule="evenodd" d="M21.8075 103.385C16.9006 103.385 12.9229 107.363 12.9229 112.269V120.992C12.9229 122.033 13.8486 122.769 14.8894 122.769H28.7255C29.7663 122.769 30.6921 122.033 30.6921 120.992V112.269C30.6921 107.363 26.7143 103.385 21.8075 103.385Z"/>
</mask>
<path fill-rule="evenodd" clip-rule="evenodd" d="M21.8075 103.385C16.9006 103.385 12.9229 107.363 12.9229 112.269V120.992C12.9229 122.033 13.8486 122.769 14.8894 122.769H28.7255C29.7663 122.769 30.6921 122.033 30.6921 120.992V112.269C30.6921 107.363 26.7143 103.385 21.8075 103.385Z" fill="white"/>
<path d="M13.9229 112.269C13.9229 107.915 17.4529 104.385 21.8075 104.385V102.385C16.3483 102.385 11.9229 106.81 11.9229 112.269H13.9229ZM13.9229 120.992V112.269H11.9229V120.992H13.9229ZM14.8894 123.769H28.7255V121.769H14.8894V123.769ZM29.6921 112.269V120.992H31.6921V112.269H29.6921ZM21.8075 104.385C26.162 104.385 29.6921 107.915 29.6921 112.269H31.6921C31.6921 106.81 27.2666 102.385 21.8075 102.385V104.385ZM28.7255 123.769C30.1821 123.769 31.6921 122.713 31.6921 120.992H29.6921C29.6921 121.353 29.3506 121.769 28.7255 121.769V123.769ZM11.9229 120.992C11.9229 122.713 13.4329 123.769 14.8894 123.769V121.769C14.2643 121.769 13.9229 121.353 13.9229 120.992H11.9229Z" fill="black" mask="url(#path-6-inside-2_784_0)"/>
<mask id="path-8-inside-3_784_0" fill="white">
<path fill-rule="evenodd" clip-rule="evenodd" d="M52.4999 103.385C47.593 103.385 43.6152 107.363 43.6152 112.269V120.992C43.6152 122.033 44.541 122.769 45.5818 122.769H59.4179C60.4587 122.769 61.3845 122.033 61.3845 120.992V112.269C61.3845 107.363 57.4067 103.385 52.4999 103.385Z"/>
</mask>
<path fill-rule="evenodd" clip-rule="evenodd" d="M52.4999 103.385C47.593 103.385 43.6152 107.363 43.6152 112.269V120.992C43.6152 122.033 44.541 122.769 45.5818 122.769H59.4179C60.4587 122.769 61.3845 122.033 61.3845 120.992V112.269C61.3845 107.363 57.4067 103.385 52.4999 103.385Z" fill="white"/>
<path d="M44.6152 112.269C44.6152 107.915 48.1453 104.385 52.4999 104.385V102.385C47.0407 102.385 42.6152 106.81 42.6152 112.269H44.6152ZM44.6152 120.992V112.269H42.6152V120.992H44.6152ZM45.5818 123.769H59.4179V121.769H45.5818V123.769ZM60.3845 112.269V120.992H62.3845V112.269H60.3845ZM52.4999 104.385C56.8544 104.385 60.3845 107.915 60.3845 112.269H62.3845C62.3845 106.81 57.959 102.385 52.4999 102.385V104.385ZM59.4179 123.769C60.8745 123.769 62.3845 122.713 62.3845 120.992H60.3845C60.3845 121.353 60.043 121.769 59.4179 121.769V123.769ZM42.6152 120.992C42.6152 122.713 44.1253 123.769 45.5818 123.769V121.769C44.9567 121.769 44.6152 121.353 44.6152 120.992H42.6152Z" fill="black" mask="url(#path-8-inside-3_784_0)"/>
<mask id="path-10-inside-4_784_0" fill="white">
<path fill-rule="evenodd" clip-rule="evenodd" d="M21.8075 135.692C16.9006 135.692 12.9229 139.67 12.9229 144.577V153.3C12.9229 154.341 13.8486 155.077 14.8895 155.077H28.7254C29.7663 155.077 30.6921 154.341 30.6921 153.3V144.577C30.6921 139.67 26.7143 135.692 21.8075 135.692Z"/>
</mask>
<path fill-rule="evenodd" clip-rule="evenodd" d="M21.8075 135.692C16.9006 135.692 12.9229 139.67 12.9229 144.577V153.3C12.9229 154.341 13.8486 155.077 14.8895 155.077H28.7254C29.7663 155.077 30.6921 154.341 30.6921 153.3V144.577C30.6921 139.67 26.7143 135.692 21.8075 135.692Z" fill="white"/>
<path d="M13.9229 144.577C13.9229 140.222 17.4529 136.692 21.8075 136.692V134.692C16.3483 134.692 11.9229 139.118 11.9229 144.577H13.9229ZM13.9229 153.3V144.577H11.9229V153.3H13.9229ZM14.8895 156.077H28.7254V154.077H14.8895V156.077ZM29.6921 144.577V153.3H31.6921V144.577H29.6921ZM21.8075 136.692C26.162 136.692 29.6921 140.222 29.6921 144.577H31.6921C31.6921 139.118 27.2666 134.692 21.8075 134.692V136.692ZM28.7254 156.077C30.182 156.077 31.6921 155.02 31.6921 153.3H29.6921C29.6921 153.661 29.3506 154.077 28.7254 154.077V156.077ZM11.9229 153.3C11.9229 155.02 13.4329 156.077 14.8895 156.077V154.077C14.2643 154.077 13.9229 153.661 13.9229 153.3H11.9229Z" fill="black" mask="url(#path-10-inside-4_784_0)"/>
<mask id="path-12-inside-5_784_0" fill="white">
<path fill-rule="evenodd" clip-rule="evenodd" d="M52.4999 135.692C47.593 135.692 43.6152 139.67 43.6152 144.577V153.3C43.6152 154.341 44.541 155.077 45.5819 155.077H59.4178C60.4587 155.077 61.3845 154.341 61.3845 153.3V144.577C61.3845 139.67 57.4067 135.692 52.4999 135.692Z"/>
</mask>
<path fill-rule="evenodd" clip-rule="evenodd" d="M52.4999 135.692C47.593 135.692 43.6152 139.67 43.6152 144.577V153.3C43.6152 154.341 44.541 155.077 45.5819 155.077H59.4178C60.4587 155.077 61.3845 154.341 61.3845 153.3V144.577C61.3845 139.67 57.4067 135.692 52.4999 135.692Z" fill="white"/>
<path d="M44.6152 144.577C44.6152 140.222 48.1453 136.692 52.4999 136.692V134.692C47.0407 134.692 42.6152 139.118 42.6152 144.577H44.6152ZM44.6152 153.3V144.577H42.6152V153.3H44.6152ZM45.5819 156.077H59.4178V154.077H45.5819V156.077ZM60.3845 144.577V153.3H62.3845V144.577H60.3845ZM52.4999 136.692C56.8544 136.692 60.3845 140.222 60.3845 144.577H62.3845C62.3845 139.118 57.959 134.692 52.4999 134.692V136.692ZM59.4178 156.077C60.8744 156.077 62.3845 155.02 62.3845 153.3H60.3845C60.3845 153.661 60.043 154.077 59.4178 154.077V156.077ZM42.6152 153.3C42.6152 155.02 44.1253 156.077 45.5819 156.077V154.077C44.9567 154.077 44.6152 153.661 44.6152 153.3H42.6152Z" fill="black" mask="url(#path-12-inside-5_784_0)"/>
<mask id="path-14-inside-6_784_0" fill="white">
<path fill-rule="evenodd" clip-rule="evenodd" d="M83.1922 135.692C78.2854 135.692 74.3076 139.67 74.3076 144.577V153.3C74.3076 154.341 75.2334 155.077 76.2743 155.077H90.1102C91.1511 155.077 92.0769 154.341 92.0769 153.3V144.577C92.0769 139.67 88.0991 135.692 83.1922 135.692Z"/>
</mask>
<path fill-rule="evenodd" clip-rule="evenodd" d="M83.1922 135.692C78.2854 135.692 74.3076 139.67 74.3076 144.577V153.3C74.3076 154.341 75.2334 155.077 76.2743 155.077H90.1102C91.1511 155.077 92.0769 154.341 92.0769 153.3V144.577C92.0769 139.67 88.0991 135.692 83.1922 135.692Z" fill="white"/>
<path d="M75.3076 144.577C75.3076 140.222 78.8377 136.692 83.1922 136.692V134.692C77.7331 134.692 73.3076 139.118 73.3076 144.577H75.3076ZM75.3076 153.3V144.577H73.3076V153.3H75.3076ZM76.2743 156.077H90.1102V154.077H76.2743V156.077ZM91.0769 144.577V153.3H93.0769V144.577H91.0769ZM83.1922 136.692C87.5468 136.692 91.0769 140.222 91.0769 144.577H93.0769C93.0769 139.118 88.6514 134.692 83.1922 134.692V136.692ZM90.1102 156.077C91.5668 156.077 93.0769 155.02 93.0769 153.3H91.0769C91.0769 153.661 90.7354 154.077 90.1102 154.077V156.077ZM73.3076 153.3C73.3076 155.02 74.8177 156.077 76.2743 156.077V154.077C75.6491 154.077 75.3076 153.661 75.3076 153.3H73.3076Z" fill="black" mask="url(#path-14-inside-6_784_0)"/>
<path d="M167.5 32.3077C167.5 49.8746 153.259 64.1154 135.692 64.1154C118.126 64.1154 103.885 49.8746 103.885 32.3077C103.885 14.7408 118.126 0.5 135.692 0.5C153.259 0.5 167.5 14.7408 167.5 32.3077Z" fill="white" stroke="black"/>
</g>
<defs>
<clipPath id="clip0_784_0">
<rect width="168" height="168" fill="white"/>
</clipPath>
</defs>
</svg>
