<svg width="168" height="168" viewBox="0 0 168 168" fill="none" xmlns="http://www.w3.org/2000/svg">
<g clip-path="url(#clip0_784_720)">
<path d="M103.5 20C103.5 30.7696 94.7696 39.5 84 39.5C73.2304 39.5 64.5 30.7696 64.5 20C64.5 9.23045 73.2304 0.5 84 0.5C94.7696 0.5 103.5 9.23045 103.5 20Z" fill="#9FB4FF" stroke="black"/>
<circle cx="148" cy="88" r="19.5" fill="white" stroke="black"/>
<path d="M103.5 148C103.5 158.77 94.7696 167.5 84 167.5C73.2304 167.5 64.5 158.77 64.5 148C64.5 137.23 73.2304 128.5 84 128.5C94.7696 128.5 103.5 137.23 103.5 148Z" fill="white" stroke="black"/>
<circle cx="20" cy="88" r="19.5" fill="white" stroke="black"/>
<path d="M55.5 132C55.5 142.77 46.7696 151.5 36 151.5C25.2304 151.5 16.5 142.77 16.5 132C16.5 121.23 25.2304 112.5 36 112.5C46.7696 112.5 55.5 121.23 55.5 132Z" fill="white" stroke="black"/>
<path d="M55.5 44C55.5 54.7696 46.7696 63.5 36 63.5C25.2304 63.5 16.5 54.7696 16.5 44C16.5 33.2304 25.2304 24.5 36 24.5C46.7696 24.5 55.5 33.2304 55.5 44Z" fill="white" stroke="black"/>
<path d="M151.5 44C151.5 54.7696 142.77 63.5 132 63.5C121.23 63.5 112.5 54.7696 112.5 44C112.5 33.2304 121.23 24.5 132 24.5C142.77 24.5 151.5 33.2304 151.5 44Z" fill="white" stroke="black"/>
<path d="M151.5 132C151.5 142.77 142.77 151.5 132 151.5C121.23 151.5 112.5 142.77 112.5 132C112.5 121.23 121.23 112.5 132 112.5C142.77 112.5 151.5 121.23 151.5 132Z" fill="white" stroke="black"/>
<path d="M62 103.818H63.82V89.739H81.7866V103.818H83.6065V74H81.7866V88.0501H63.82V74H62V103.818Z" fill="black"/>
<path d="M92.2295 103.818H94.0495V91.3551H101.431C101.955 91.3551 102.45 91.326 102.945 91.2678L109.716 103.818H111.812L104.78 90.8746C108.405 89.7536 110.502 86.7397 110.502 82.7212C110.502 77.5526 107.08 74 101.417 74H92.2295V103.818ZM94.0495 89.6516V75.6889H101.373C105.959 75.6889 108.696 78.4698 108.696 82.7212C108.696 86.9435 105.959 89.6516 101.388 89.6516H94.0495Z" fill="black"/>
</g>
<defs>
<clipPath id="clip0_784_720">
<rect width="168" height="168" fill="white"/>
</clipPath>
</defs>
</svg>
