<svg width="168" height="168" viewBox="0 0 168 168" fill="none" xmlns="http://www.w3.org/2000/svg">
<g clip-path="url(#clip0_784_895)">
<rect x="0.5" y="0.5" width="167" height="167" fill="white" stroke="black"/>
<path d="M42 0V168" stroke="black"/>
<path d="M168 42L-5.42402e-06 42" stroke="black"/>
<path d="M84 0V168" stroke="black"/>
<path d="M168 84L-5.42402e-06 84" stroke="black"/>
<path d="M126 0V168" stroke="black"/>
<path d="M168 126L-5.42402e-06 126" stroke="black"/>
<path d="M167.5 167.5H1.15094C7.84593 160.429 13.6308 156.879 18.8078 155.38C24.1782 153.826 28.9541 154.462 33.5111 155.76C35.5193 156.332 37.4757 157.03 39.4269 157.725C39.6954 157.821 39.9638 157.917 40.2323 158.012C42.4438 158.798 44.654 159.557 46.8891 160.082C51.3762 161.135 55.9863 161.245 61.0216 158.756C64.8057 156.886 67.2517 152.702 69.229 147.662C70.4516 144.545 71.5225 141.02 72.6159 137.421C73.29 135.201 73.9727 132.954 74.7048 130.757C76.639 124.952 78.9332 119.438 82.364 115.377C85.7742 111.34 90.3127 108.731 96.8 108.731C106.7 108.731 111.768 113.905 116.001 118.224C116.285 118.515 116.566 118.802 116.845 119.083C119.029 121.288 121.132 123.228 123.707 123.715C126.327 124.211 129.279 123.188 133.124 119.92C136.247 117.265 139.162 114.417 141.981 111.651L142.279 111.359C144.997 108.692 147.625 106.112 150.286 103.84C155.663 99.2475 161.098 95.9761 167.5 95.8139V167.5Z" fill="#C8F3CF" stroke="black"/>
</g>
<defs>
<clipPath id="clip0_784_895">
<rect width="168" height="168" fill="white"/>
</clipPath>
</defs>
</svg>
