<svg width="152" height="40" viewBox="0 0 152 40" fill="none" xmlns="http://www.w3.org/2000/svg">
<path d="M16.4058 23.7907C16.4058 18.5712 13.0029 15.7631 8.70288 15.7631C4.37194 15.7631 1 18.5712 1 23.7907C1 28.9797 4.37194 31.8183 8.70288 31.8183C13.0029 31.8183 16.4058 29.0102 16.4058 23.7907ZM11.982 23.7907C11.982 26.5988 10.8374 28.125 8.70288 28.125C6.56835 28.125 5.42374 26.5988 5.42374 23.7907C5.42374 20.9826 6.56835 19.4564 8.70288 19.4564C10.8374 19.4564 11.982 20.9826 11.982 23.7907Z" fill="black"/>
<path d="M29.3637 15.641C28.7682 15.992 27.7396 15.9844 26.363 15.9767C26.1774 15.9767 25.9763 15.9767 25.7752 15.9767C20.9802 15.9767 18.4126 18.617 18.4126 24.5538V25.3169C18.4126 29.5291 20.7018 31.8183 24.5687 31.8183C28.4356 31.8183 30.7248 29.5367 30.7248 26.0189C30.7248 22.7682 28.7605 20.6468 25.5587 20.6468C23.4705 20.6468 22.3414 21.5625 21.6918 22.9666H21.5989C21.9083 20.189 22.991 19.3038 25.9299 19.3038C28.5284 19.3038 29.4565 19.1206 30.4155 18.4491L29.3637 15.641ZM24.5997 28.7049C23.4551 28.7049 22.7745 27.7892 22.7745 26.202C22.7745 24.5843 23.4551 23.6686 24.5997 23.6686C25.6824 23.6686 26.363 24.5843 26.363 26.202C26.363 27.7892 25.6824 28.7049 24.5997 28.7049Z" fill="black"/>
<path d="M32.8496 36H37.1187V29.6817H37.1806C37.6755 30.8721 38.8201 31.7573 40.4906 31.7573C43.0273 31.7573 45.1619 29.8038 45.1619 25.7442C45.1619 21.5015 42.8727 19.7311 40.5216 19.7311C38.7583 19.7311 37.6446 20.7384 37.1806 21.9288H37.0878V19.8837H32.8496V36ZM37.0259 25.7442C37.0259 24.0044 37.7374 22.9666 38.913 22.9666C40.0885 22.9666 40.7691 24.0044 40.7691 25.7442C40.7691 27.484 40.0885 28.5218 38.913 28.5218C37.7374 28.5218 37.0259 27.4535 37.0259 25.7442Z" fill="black"/>
<path d="M50.5871 31.7878C52.1338 31.7878 53.3016 31.2689 54.0209 29.9564H54.1137V31.6047H58.1043V23.577C58.1043 21.4099 56.0239 19.7311 52.6288 19.7311C49.079 19.7311 47.3311 21.5625 47.1842 23.6991H51.113C51.2135 22.9742 51.7549 22.6308 52.5669 22.6308C53.3094 22.6308 53.8353 22.9666 53.8353 23.577V23.6076C53.8353 24.2867 53.0774 24.5004 51.082 24.6453C48.6304 24.8209 46.7202 25.7976 46.7202 28.3692C46.7202 30.7042 48.3133 31.7878 50.5871 31.7878ZM51.9792 29.1323C51.2522 29.1323 50.7417 28.7813 50.7417 28.125C50.7417 27.5222 51.1748 27.0567 52.1648 26.9041C52.8453 26.7972 53.4176 26.6599 53.8662 26.4767V27.4535C53.8662 28.5218 52.9459 29.1323 51.9792 29.1323Z" fill="black"/>
<path d="M59.9449 28.064C60.0377 30.605 62.2883 31.8183 65.3586 31.8183C68.4985 31.8183 70.7413 30.5745 70.7413 28.3692C70.7413 26.6217 69.357 25.706 67.8334 25.6221V25.5C69.5426 25.1337 70.432 24.2485 70.432 23.0581C70.432 20.891 68.514 19.7311 65.3276 19.7311C62.5435 19.7311 60.2852 21.0436 60.2852 23.3023H64.3068C64.3068 22.7987 64.8095 22.4477 65.5133 22.4477C66.217 22.4477 66.7197 22.875 66.7197 23.4855C66.7197 24.0196 66.2093 24.4012 65.4823 24.4012H63.9974V26.8735H65.4823C66.2248 26.8735 66.7507 27.3161 66.7507 27.9419C66.7507 28.6057 66.1706 29.0712 65.3586 29.0712C64.5465 29.0712 63.9665 28.6515 63.9665 28.064H59.9449Z" fill="black"/>
<path d="M78.4519 31.8183C82.3188 31.8183 84.608 29.3765 84.608 25.7747C84.608 22.173 82.3188 19.7311 78.4519 19.7311C74.585 19.7311 72.2957 22.173 72.2957 25.7747C72.2957 29.3765 74.585 31.8183 78.4519 31.8183ZM78.4828 28.7049C77.3382 28.7049 76.6576 27.5832 76.6576 25.7442C76.6576 23.9052 77.3382 22.7834 78.4828 22.7834C79.5655 22.7834 80.2461 23.9052 80.2461 25.7442C80.2461 27.5832 79.5655 28.7049 78.4828 28.7049Z" fill="black"/>
<path d="M86.667 31.6047H92.6685C96.0095 31.6047 97.8037 30.5058 97.8037 28.3692C97.8037 27.0262 96.6901 25.6526 93.9987 25.5305C95.9476 25.2253 96.9994 24.2485 96.9994 23.0887C96.9994 20.952 95.0505 19.8837 91.8642 19.8837H86.667V31.6047ZM90.6267 28.6439V26.782H92.6685C93.3568 26.782 93.7821 27.1406 93.7821 27.7282C93.7821 28.3005 93.3568 28.6439 92.6685 28.6439H90.6267ZM90.6267 24.6453V22.936H91.8642C92.5911 22.936 93.0397 23.2565 93.0397 23.7907C93.0397 24.3249 92.6453 24.6453 91.9879 24.6453H90.6267Z" fill="black"/>
<path d="M103.086 31.7878C104.633 31.7878 105.8 31.2689 106.52 29.9564H106.612V31.6047H110.603V23.577C110.603 21.4099 108.523 19.7311 105.128 19.7311C101.578 19.7311 99.8299 21.5625 99.683 23.6991H103.612C103.712 22.9742 104.254 22.6308 105.066 22.6308C105.808 22.6308 106.334 22.9666 106.334 23.577V23.6076C106.334 24.2867 105.576 24.5004 103.581 24.6453C101.129 24.8209 99.2189 25.7976 99.2189 28.3692C99.2189 30.7042 100.812 31.7878 103.086 31.7878ZM104.478 29.1323C103.751 29.1323 103.241 28.7813 103.241 28.125C103.241 27.5222 103.674 27.0567 104.664 26.9041C105.344 26.7972 105.916 26.6599 106.365 26.4767V27.4535C106.365 28.5218 105.445 29.1323 104.478 29.1323Z" fill="black"/>
<path d="M106.009 18.4186H108.824L111.144 15H107.494L106.009 18.4186Z" fill="black"/>
<path d="M117.318 19.8837H113.296V31.6047H117.318V27.2703H120.288V31.6047H124.278V19.8837H120.288V24.1265H117.318V19.8837Z" fill="black"/>
<path d="M130.661 26.2326V19.8837H126.639V31.6047H130.661L133.971 25.2253V31.6047H137.992V19.8837H133.971L130.661 26.2326Z" fill="black"/>
<path d="M146.184 31.8183C149.479 31.8183 151.598 30.2616 152 27.8198H148.102C147.855 28.4836 147.151 28.8576 146.277 28.8576C145.009 28.8576 144.266 28.0334 144.266 26.9041V26.7209H152V25.7442C152 22.0127 149.68 19.7311 146.091 19.7311C142.41 19.7311 140.059 22.1424 140.059 25.7747C140.059 29.5672 142.379 31.8183 146.184 31.8183ZM144.266 24.4012C144.289 23.3863 145.14 22.6919 146.184 22.6919C147.244 22.6919 148.048 23.3939 148.071 24.4012H144.266Z" fill="black"/>
<path d="M118.806 12C120.483 12 121.611 10.8209 121.611 9.04478C121.611 7.25373 120.483 6.07463 118.806 6.07463C117.129 6.07463 116 7.25373 116 9.04478C116 10.8209 117.129 12 118.806 12ZM118.806 11.209C117.532 11.209 116.951 10.194 116.951 9.04478C116.951 7.89552 117.532 6.86567 118.806 6.86567C120.08 6.86567 120.66 7.89552 120.66 9.04478C120.66 10.194 120.08 11.209 118.806 11.209Z" fill="#787878"/>
<path d="M125.037 8.43284C125.037 7.43284 125.706 6.86567 126.617 6.86567C127.5 6.86567 128.036 7.39925 128.036 8.29851V11.8806H128.987V8.23881C128.987 6.77612 128.145 6.07463 126.891 6.07463C125.956 6.07463 125.375 6.46269 125.085 7.04478H125.004V6.14925H124.085V11.8806H125.037V8.43284Z" fill="#787878"/>
<path d="M132.699 4.23881H131.747V11.8806H132.699V4.23881Z" fill="#787878"/>
<path d="M135.463 11.8806H136.414V6.14925H135.463V11.8806ZM135.946 5.19403C136.317 5.19403 136.624 4.92537 136.624 4.59702C136.624 4.26866 136.317 4 135.946 4C135.576 4 135.269 4.26866 135.269 4.59702C135.269 4.92537 135.576 5.19403 135.946 5.19403Z" fill="#787878"/>
<path d="M140.13 8.43284C140.13 7.43284 140.799 6.86567 141.71 6.86567C142.593 6.86567 143.129 7.39925 143.129 8.29851V11.8806H144.08V8.23881C144.08 6.77612 143.238 6.07463 141.984 6.07463C141.049 6.07463 140.468 6.46269 140.178 7.04478H140.097V6.14925H139.178V11.8806H140.13V8.43284Z" fill="#787878"/>
<path d="M149.436 12C150.694 12 151.613 11.4179 151.903 10.5522L150.984 10.3134C150.742 10.9104 150.182 11.209 149.436 11.209C148.32 11.209 147.55 10.541 147.505 9.31343H152V8.9403C152 6.80597 150.629 6.07463 149.339 6.07463C147.662 6.07463 146.55 7.29851 146.55 9.0597C146.55 10.8209 147.646 12 149.436 12ZM147.505 8.55224C147.57 7.66045 148.251 6.86567 149.339 6.86567C150.371 6.86567 151.033 7.58209 151.033 8.55224H147.505Z" fill="#787878"/>
</svg>
