<svg width="168" height="168" viewBox="0 0 168 168" fill="none" xmlns="http://www.w3.org/2000/svg">
<g clip-path="url(#clip0_476_19006)">
<circle cx="84" cy="84" r="83.5" fill="#FDE2BA" stroke="black"/>
<mask id="path-2-inside-1_476_19006" fill="white">
<path d="M29.4361 20.134C16.2962 31.36 6.93876 46.3657 2.63981 63.1048C-1.65915 79.8439 -0.690367 97.5016 5.41404 113.67C11.5184 129.838 22.4613 143.73 36.7505 153.451C51.0396 163.172 67.9793 168.249 85.2597 167.99C102.54 167.731 119.32 162.148 133.311 152.002C147.302 141.857 157.823 127.643 163.44 111.299C169.056 94.9547 169.495 77.2758 164.696 60.6732C159.897 44.0707 150.093 29.3524 136.622 18.5257L83.9995 83.9997L29.4361 20.134Z"/>
</mask>
<path d="M29.4361 20.134C16.2962 31.36 6.93876 46.3657 2.63981 63.1048C-1.65915 79.8439 -0.690367 97.5016 5.41404 113.67C11.5184 129.838 22.4613 143.73 36.7505 153.451C51.0396 163.172 67.9793 168.249 85.2597 167.99C102.54 167.731 119.32 162.148 133.311 152.002C147.302 141.857 157.823 127.643 163.44 111.299C169.056 94.9547 169.495 77.2758 164.696 60.6732C159.897 44.0707 150.093 29.3524 136.622 18.5257L83.9995 83.9997L29.4361 20.134Z" fill="white" stroke="black" stroke-width="2" mask="url(#path-2-inside-1_476_19006)"/>
<mask id="path-3-inside-2_476_19006" fill="white">
<path d="M28.5319 147.085C43.7201 160.439 63.2162 167.865 83.4396 167.999C103.663 168.133 123.256 160.966 138.62 147.815L83.9966 84.0007L28.5319 147.085Z"/>
</mask>
<path d="M28.5319 147.085C43.7201 160.439 63.2162 167.865 83.4396 167.999C103.663 168.133 123.256 160.966 138.62 147.815L83.9966 84.0007L28.5319 147.085Z" fill="#FDE2BA" stroke="black" stroke-width="2" mask="url(#path-3-inside-2_476_19006)"/>
<circle cx="83.2996" cy="83.3001" r="49.2" fill="white" stroke="black"/>
</g>
<defs>
<clipPath id="clip0_476_19006">
<rect width="168" height="168" fill="white"/>
</clipPath>
</defs>
</svg>
