<svg width="168" height="168" viewBox="0 0 168 168" fill="none" xmlns="http://www.w3.org/2000/svg">
<g clip-path="url(#clip0_554_13357)">
<circle cx="36.4737" cy="36.4737" r="35.9737" fill="white" stroke="black"/>
<circle cx="131.526" cy="36.4737" r="35.9737" fill="white" stroke="black"/>
<circle cx="131.526" cy="131.526" r="35.9737" fill="white" stroke="black"/>
<circle cx="36.4737" cy="131.526" r="35.9737" fill="white" stroke="black"/>
<path d="M38.934 29.6365H36.8074L33.1973 31.9961V34.0874L36.6591 31.8266H36.7438V44.1054H38.934V29.6365Z" fill="black"/>
<path d="M126.287 44.1052H135.81V42.233H129.296V42.127L132.172 39.1174C134.821 36.4398 135.577 35.161 135.577 33.5432C135.577 31.2188 133.684 29.4385 130.956 29.4385C128.251 29.4385 126.272 31.1906 126.272 33.8328H128.357C128.35 32.2786 129.353 31.2612 130.914 31.2612C132.384 31.2612 133.5 32.1655 133.5 33.6068C133.5 34.8855 132.737 35.8039 131.183 37.4501L126.287 42.5227V44.1052Z" fill="black"/>
<path d="M131.324 140.461C134.277 140.461 136.446 138.695 136.439 136.293C136.446 134.463 135.337 133.149 133.415 132.852V132.739C134.927 132.35 135.909 131.164 135.902 129.539C135.909 127.412 134.164 125.596 131.38 125.596C128.724 125.596 126.59 127.2 126.52 129.553H128.632C128.681 128.225 129.932 127.419 131.352 127.419C132.829 127.419 133.796 128.316 133.789 129.652C133.796 131.051 132.673 131.969 131.069 131.969H129.847V133.749H131.069C133.076 133.749 134.234 134.767 134.234 136.222C134.234 137.628 133.012 138.582 131.31 138.582C129.741 138.582 128.519 137.776 128.434 136.49H126.216C126.308 138.85 128.399 140.461 131.324 140.461Z" fill="black"/>
<path d="M30.9297 137.437H37.7897V140.263H39.8738V137.437H41.7884V135.586H39.8738V125.794H37.1821L30.9297 135.671V137.437ZM37.8038 135.586H33.2187V135.473L37.6908 128.394H37.8038V135.586Z" fill="black"/>
<path fill-rule="evenodd" clip-rule="evenodd" d="M93.5261 36.4729L84.7514 29.1606L85.4589 28.3115L95.4063 36.601L95.9158 37.0255L95.4063 37.4501L85.4589 45.7396L84.7514 44.8905L93.5261 37.5782L72.9473 37.5782V36.4729L93.5261 36.4729Z" fill="black"/>
<path fill-rule="evenodd" clip-rule="evenodd" d="M131.951 93.5264L139.263 84.7516L140.112 85.4592L131.823 95.4066L131.398 95.916L130.974 95.4066L122.684 85.4592L123.533 84.7516L130.846 93.5264L130.846 72.9475L131.951 72.9475L131.951 93.5264Z" fill="black"/>
<path fill-rule="evenodd" clip-rule="evenodd" d="M74.2317 133.055L83.0064 140.368L82.2989 141.217L72.3515 132.927L71.842 132.503L72.3515 132.078L82.2989 123.789L83.0064 124.638L74.2317 131.95L94.8105 131.95L94.8105 133.055L74.2317 133.055Z" fill="black"/>
</g>
<defs>
<clipPath id="clip0_554_13357">
<rect width="168" height="168" fill="white"/>
</clipPath>
</defs>
</svg>
