<svg width="168" height="168" viewBox="0 0 168 168" fill="none" xmlns="http://www.w3.org/2000/svg">
<g clip-path="url(#clip0_551_49242)">
<path d="M74.8125 19.9763L91.2674 70.0417L91.38 70.3843L91.7407 70.3855L144.44 70.564L101.91 101.685L101.619 101.898L101.73 102.241L117.845 152.417L75.105 121.585L74.8125 121.374L74.52 121.585L31.7801 152.417L47.8954 102.241L48.0057 101.898L47.7147 101.685L5.18456 70.564L57.8843 70.3855L58.245 70.3843L58.3576 70.0417L74.8125 19.9763Z" fill="#FFEAA2" stroke="black"/>
<path d="M145.688 1.60135L150.262 15.5189L150.374 15.8616L150.735 15.8628L165.385 15.9124L153.562 24.5635L153.271 24.7765L153.381 25.1199L157.861 39.0682L145.98 30.4973L145.688 30.2863L145.395 30.4973L133.514 39.0682L137.994 25.1199L138.104 24.7765L137.813 24.5635L125.99 15.9124L140.64 15.8628L141.001 15.8616L141.113 15.5189L145.688 1.60135Z" fill="#FFEAA2" stroke="black"/>
</g>
<defs>
<clipPath id="clip0_551_49242">
<rect width="168" height="168" fill="white"/>
</clipPath>
</defs>
</svg>
